<svg xmlns="http://www.w3.org/2000/svg" viewBox="0 0 2350.5 1125.5">
  <defs>
    <style>
      .cls-1 {
        fill: #cdcab6;
      }

      .cls-1, .cls-2 {
        stroke: #cdcab6;
        stroke-miterlimit: 10;
      }

      .cls-2 {
        fill: #f2efe7;
      }

      .cls-3 {
        fill: #eb5a3c;
      }

      .cls-4 {
        fill: #697565;
      }
    </style>
  </defs>
  <g id="grille">
    <line class="cls-1" x1="25" x2="25" y2="1125"/>
    <line class="cls-1" x1="50" x2="50" y2="1125"/>
    <line class="cls-1" x1="75" x2="75" y2="1125"/>
    <line class="cls-1" x1="100" x2="100" y2="1125"/>
    <line class="cls-1" x1="125" x2="125" y2="1125"/>
    <line class="cls-1" x1="150" x2="150" y2="1125"/>
    <line class="cls-1" x1="175" x2="175" y2="1125"/>
    <line class="cls-1" x1="200" x2="200" y2="1125"/>
    <line class="cls-1" x1="225" x2="225" y2="1125"/>
    <line class="cls-1" x1="250" x2="250" y2="1125"/>
    <line class="cls-1" x1="275" x2="275" y2="1125"/>
    <line class="cls-1" x1="300" x2="300" y2="1125"/>
    <line class="cls-1" x1="325" x2="325" y2="1125"/>
    <line class="cls-1" x1="350" x2="350" y2="1125"/>
    <line class="cls-1" x1="375" x2="375" y2="1125"/>
    <line class="cls-1" x1="400" x2="400" y2="1125"/>
    <line class="cls-1" x1="425" x2="425" y2="1125"/>
    <line class="cls-1" x1="450" x2="450" y2="1125"/>
    <line class="cls-1" x1="475" x2="475" y2="1125"/>
    <line class="cls-1" x1="500" x2="500" y2="1125"/>
    <line class="cls-1" x1="525" x2="525" y2="1125"/>
    <line class="cls-1" x1="550" x2="550" y2="1125"/>
    <line class="cls-1" x1="575" x2="575" y2="1125"/>
    <line class="cls-1" x1="600" x2="600" y2="1125"/>
    <line class="cls-1" y1="25" x2="2350" y2="25"/>
    <line class="cls-1" y1="50" x2="2350" y2="50"/>
    <line class="cls-1" y1="75" x2="2350" y2="75"/>
    <line class="cls-1" y1="100" x2="2350" y2="100"/>
    <line class="cls-1" y1="125" x2="2350" y2="125"/>
    <line class="cls-1" y1="150" x2="2350" y2="150"/>
    <line class="cls-1" y1="175" x2="2350" y2="175"/>
    <line class="cls-1" y1="200" x2="2350" y2="200"/>
    <line class="cls-1" y1="225" x2="2350" y2="225"/>
    <line class="cls-1" y1="250" x2="2350" y2="250"/>
    <line class="cls-1" y1="275" x2="2350" y2="275"/>
    <line class="cls-1" y1="300" x2="2350" y2="300"/>
    <line class="cls-1" y1="325" x2="2350" y2="325"/>
    <line class="cls-1" y1="350" x2="2350" y2="350"/>
    <line class="cls-1" y1="375" x2="2350" y2="375"/>
    <line class="cls-1" y1="400" x2="2350" y2="400"/>
    <line class="cls-1" y1="425" x2="2350" y2="425"/>
    <line class="cls-1" x1="625" x2="625" y2="1125"/>
    <line class="cls-1" x1="650" x2="650" y2="1125"/>
    <line class="cls-1" x1="675" x2="675" y2="1125"/>
    <line class="cls-1" x1="700" x2="700" y2="1125"/>
    <line class="cls-1" x1="725" x2="725" y2="1125"/>
    <line class="cls-1" x1="750" x2="750" y2="1125"/>
    <line class="cls-1" x1="775" x2="775" y2="1125"/>
    <line class="cls-1" x1="800" x2="800" y2="1125"/>
    <line class="cls-1" x1="825" x2="825" y2="1125"/>
    <line class="cls-1" x1="850" x2="850" y2="1125"/>
    <line class="cls-1" x1="875" x2="875" y2="1125"/>
    <line class="cls-1" x1="900" x2="900" y2="1125"/>
    <line class="cls-1" x1="925" x2="925" y2="1125"/>
    <line class="cls-1" x1="950" x2="950" y2="1125"/>
    <line class="cls-1" x1="975" x2="975" y2="1125"/>
    <line class="cls-1" y1="450" x2="2350" y2="450"/>
    <line class="cls-1" y1="475" x2="2350" y2="475"/>
    <line class="cls-1" y1="500" x2="2350" y2="500"/>
    <line class="cls-1" y1="525" x2="2350" y2="525"/>
    <line class="cls-1" y1="550" x2="2350" y2="550"/>
    <line class="cls-1" y1="575" x2="2350" y2="575"/>
    <line class="cls-1" y1="600" x2="2350" y2="600"/>
    <line class="cls-1" y1="625" x2="2350" y2="625"/>
    <line class="cls-1" y1="650" x2="2350" y2="650"/>
    <line class="cls-1" y1="675" x2="2350" y2="675"/>
    <line class="cls-1" y1="700" x2="2350" y2="700"/>
    <line class="cls-1" y1="725" x2="2350" y2="725"/>
    <line class="cls-1" y1="750" x2="2350" y2="750"/>
    <line class="cls-1" y1="775" x2="2350" y2="775"/>
    <line class="cls-1" y1="800" x2="2350" y2="800"/>
    <line class="cls-1" y1="825" x2="2350" y2="825"/>
    <line class="cls-1" y1="850" x2="2350" y2="850"/>
    <line class="cls-1" y1="875" x2="2350" y2="875"/>
    <line class="cls-1" y1="900" x2="2350" y2="900"/>
    <line class="cls-1" y1="925" x2="2350" y2="925"/>
    <line class="cls-1" x1="1000" x2="1000" y2="1125"/>
    <line class="cls-1" x1="1025" x2="1025" y2="1125"/>
    <line class="cls-1" x1="1050" x2="1050" y2="1125"/>
    <line class="cls-1" x1="1075" x2="1075" y2="1125"/>
    <line class="cls-1" x1="1100" x2="1100" y2="1125"/>
    <line class="cls-1" x1="1125" x2="1125" y2="1125"/>
    <line class="cls-1" x1="1150" x2="1150" y2="1125"/>
    <line class="cls-1" x1="1175" x2="1175" y2="1125"/>
    <line class="cls-1" x1="1200" x2="1200" y2="1125"/>
    <line class="cls-1" x1="1225" x2="1225" y2="1125"/>
    <line class="cls-1" x1="1250" x2="1250" y2="1125"/>
    <line class="cls-1" x1="1275" x2="1275" y2="1125"/>
    <line class="cls-1" x1="1300" x2="1300" y2="1125"/>
    <line class="cls-1" x1="1325" x2="1325" y2="1125"/>
    <line class="cls-1" x1="1350" x2="1350" y2="1125"/>
    <line class="cls-1" x1="1375" x2="1375" y2="1125"/>
    <line class="cls-1" x1="1400" x2="1400" y2="1125"/>
    <line class="cls-1" x1="1425" x2="1425" y2="1125"/>
    <line class="cls-1" x1="1450" x2="1450" y2="1125"/>
    <line class="cls-1" x1="1475" x2="1475" y2="1125"/>
    <line class="cls-1" x1="1500" x2="1500" y2="1125"/>
    <line class="cls-1" x1="1525" x2="1525" y2="1125"/>
    <line class="cls-1" x1="1550" x2="1550" y2="1125"/>
    <line class="cls-1" x1="1575" x2="1575" y2="1125"/>
    <line class="cls-1" x1="1600" x2="1600" y2="1125"/>
    <line class="cls-1" x1="1625" x2="1625" y2="1125"/>
    <line class="cls-1" x1="1650" x2="1650" y2="1125"/>
    <line class="cls-1" x1="1675" x2="1675" y2="1125"/>
    <line class="cls-1" x1="1700" x2="1700" y2="1125"/>
    <line class="cls-1" x1="1725" x2="1725" y2="1125"/>
    <line class="cls-1" x1="1750" x2="1750" y2="1125"/>
    <line class="cls-1" x1="1775" x2="1775" y2="1125"/>
    <line class="cls-1" x1="1800" x2="1800" y2="1125"/>
    <line class="cls-1" x1="1825" x2="1825" y2="1125"/>
    <line class="cls-1" x1="1850" x2="1850" y2="1125"/>
    <line class="cls-1" x1="1875" x2="1875" y2="1125"/>
    <line class="cls-1" x1="1900" x2="1900" y2="1125"/>
    <line class="cls-1" x1="1925" x2="1925" y2="1125"/>
    <line class="cls-1" x1="1950" x2="1950" y2="1125"/>
    <line class="cls-1" y1="950" x2="2350" y2="950"/>
    <line class="cls-1" y1="975" x2="2350" y2="975"/>
    <line class="cls-1" y1="1000" x2="2350" y2="1000"/>
    <line class="cls-1" y1="1025" x2="2350" y2="1025"/>
    <line class="cls-1" y1="1050" x2="2350" y2="1050"/>
    <line class="cls-1" y1="1075" x2="2350" y2="1075"/>
    <line class="cls-1" y1="1100" x2="2350" y2="1100"/>
    <line class="cls-1" y1="1125" x2="2350" y2="1125"/>
    <line class="cls-1" x1="1975" x2="1975" y2="1125"/>
    <line class="cls-1" x1="2000" x2="2000" y2="1125"/>
    <line class="cls-1" x1="2025" x2="2025" y2="1125"/>
    <line class="cls-1" x1="2050" x2="2050" y2="1125"/>
    <line class="cls-1" x1="2075" x2="2075" y2="1125"/>
    <line class="cls-1" x1="2100" x2="2100" y2="1125"/>
    <line class="cls-1" x1="2125" x2="2125" y2="1125"/>
    <line class="cls-1" x1="2150" x2="2150" y2="1125"/>
    <line class="cls-1" x1="2175" x2="2175" y2="1125"/>
    <line class="cls-1" x1="2200" x2="2200" y2="1125"/>
    <line class="cls-1" x1="2225" x2="2225" y2="1125"/>
    <line class="cls-1" x1="2250" x2="2250" y2="1125"/>
    <line class="cls-1" x1="2275" x2="2275" y2="1125"/>
    <line class="cls-1" x1="2300" x2="2300" y2="1125"/>
    <line class="cls-1" x1="2325" x2="2325" y2="1125"/>
    <line class="cls-1" x1="2350" x2="2350" y2="1125"/>
  </g>
  <g id="texte">
    <rect class="cls-2" x="50" y="50" width="425" height="150"/>
    <g>
      <path class="cls-3" d="M75.26,97.63,78.58,74H83l-.15,1H79.7l-3,21.58H79.8l-.14,1Z" transform="translate(0)"/>
      <path class="cls-3" d="M83,91.73,85.34,75h4.47a7.88,7.88,0,0,1,5.55,1.79,6.53,6.53,0,0,1,1.94,5,12.57,12.57,0,0,1-.59,3.91A8.66,8.66,0,0,1,94.9,88.9,8.36,8.36,0,0,1,91.85,91a11.35,11.35,0,0,1-4.32.75Zm1.8-1.44H87.5a9.35,9.35,0,0,0,3.89-.72,6.62,6.62,0,0,0,2.53-1.92,7.57,7.57,0,0,0,1.38-2.71,11.25,11.25,0,0,0,.44-3.12,5.87,5.87,0,0,0-.71-3A4.3,4.3,0,0,0,93,77a8.29,8.29,0,0,0-3.3-.59h-3Z" transform="translate(0)"/>
      <path class="cls-3" d="M104.14,91.9a5,5,0,0,1-2.62-.64,4,4,0,0,1-1.58-1.74A5.68,5.68,0,0,1,99.41,87a8.48,8.48,0,0,1,.41-2.62A8,8,0,0,1,101,82a6,6,0,0,1,1.91-1.68,5.28,5.28,0,0,1,2.57-.62,4.56,4.56,0,0,1,2.59.65,3.75,3.75,0,0,1,1.43,1.68,5.48,5.48,0,0,1,.44,2.23,9.16,9.16,0,0,1-.24,2h-8.76c0,.16,0,.3,0,.43s0,.26,0,.41a3.47,3.47,0,0,0,.86,2.52,3.21,3.21,0,0,0,2.4.88A4.83,4.83,0,0,0,107.9,89l1,1a8.33,8.33,0,0,1-2.25,1.46A6.66,6.66,0,0,1,104.14,91.9Zm4.32-6.48c0-.26.08-.49.09-.7s0-.44,0-.7a3.48,3.48,0,0,0-.3-1.42,2.62,2.62,0,0,0-1-1.14,3.08,3.08,0,0,0-1.8-.46,3.85,3.85,0,0,0-2,.55A4.87,4.87,0,0,0,101.94,83a5.84,5.84,0,0,0-.85,2.07h7.85ZM105,78.36,107.74,75h1.63l-3.19,3.36Z" transform="translate(0)"/>
      <path class="cls-3" d="M117,91.9a4.56,4.56,0,0,1-2.47-.66,4.36,4.36,0,0,1-1.63-1.82,5.66,5.66,0,0,1-.58-2.61,7.73,7.73,0,0,1,.46-2.67,7.22,7.22,0,0,1,1.29-2.26,6.29,6.29,0,0,1,2-1.58,5.49,5.49,0,0,1,2.49-.57,4.63,4.63,0,0,1,2.06.44A3.85,3.85,0,0,1,122,81.41a4.15,4.15,0,0,1,.7,1.82l-.48.36,1.2-8.59H125l-2.35,16.73H121.1l.53-3.72.43.38a6.28,6.28,0,0,1-1.22,1.89A5.19,5.19,0,0,1,117,91.9Zm.29-1.4a4.14,4.14,0,0,0,2-.48,4.72,4.72,0,0,0,1.53-1.28,6,6,0,0,0,1-1.81,6.34,6.34,0,0,0,.35-2.07,4.32,4.32,0,0,0-.42-2,3.19,3.19,0,0,0-1.18-1.31,3.34,3.34,0,0,0-1.79-.47,4.23,4.23,0,0,0-2,.48,4.93,4.93,0,0,0-1.56,1.27,5.67,5.67,0,0,0-1,1.8,6.34,6.34,0,0,0-.35,2.07,4.37,4.37,0,0,0,.42,2,3.16,3.16,0,0,0,1.2,1.33A3.43,3.43,0,0,0,117.29,90.5Z" transform="translate(0)"/>
      <path class="cls-3" d="M131.26,91.9a4.59,4.59,0,0,1-2.48-.66,4.5,4.5,0,0,1-1.63-1.82,5.79,5.79,0,0,1-.57-2.61,8,8,0,0,1,.45-2.67,7.45,7.45,0,0,1,1.3-2.26,6.29,6.29,0,0,1,2-1.58,5.48,5.48,0,0,1,2.48-.57,4.67,4.67,0,0,1,2.07.44,3.85,3.85,0,0,1,1.44,1.24,4.14,4.14,0,0,1,.69,1.82l-.48.36L137,79.9h1.49l-1.66,11.83h-1.51l.53-3.72.43.38a6.48,6.48,0,0,1-1.22,1.89,5.24,5.24,0,0,1-1.72,1.2A5.31,5.31,0,0,1,131.26,91.9Zm.28-1.4a4.14,4.14,0,0,0,2-.48,4.76,4.76,0,0,0,1.54-1.28,6.21,6.21,0,0,0,1-1.81,6.08,6.08,0,0,0,.35-2.07,4.32,4.32,0,0,0-.42-2,3.17,3.17,0,0,0-1.17-1.31,3.36,3.36,0,0,0-1.79-.47,4.27,4.27,0,0,0-2,.48,4.93,4.93,0,0,0-1.56,1.27,5.84,5.84,0,0,0-1,1.8,6.08,6.08,0,0,0-.35,2.07,4.37,4.37,0,0,0,.42,2,3.16,3.16,0,0,0,1.2,1.33A3.42,3.42,0,0,0,131.54,90.5Z" transform="translate(0)"/>
      <path class="cls-3" d="M142.87,91.9a2,2,0,0,1-1.49-.53,2.1,2.1,0,0,1-.5-1.49c0-.08,0-.18,0-.3s0-.24,0-.37l2-14.21h1.51l-2,14a1.94,1.94,0,0,0,0,.24v.26a1.09,1.09,0,0,0,.22.72.86.86,0,0,0,.72.26,2.62,2.62,0,0,0,.54-.06,5.55,5.55,0,0,0,.61-.18l-.22,1.4a5.43,5.43,0,0,1-.75.18A4.39,4.39,0,0,1,142.87,91.9Z" transform="translate(0)"/>
      <path class="cls-3" d="M151.39,91.9a5,5,0,0,1-2.61-.64,3.94,3.94,0,0,1-1.59-1.74,5.83,5.83,0,0,1-.53-2.52,8.79,8.79,0,0,1,.41-2.62A8,8,0,0,1,148.26,82a6,6,0,0,1,1.91-1.68,5.28,5.28,0,0,1,2.57-.62,4.58,4.58,0,0,1,2.59.65,3.81,3.81,0,0,1,1.43,1.68,5.65,5.65,0,0,1,.44,2.23,7.83,7.83,0,0,1-.07,1c0,.37-.11.69-.17,1H148.2c0,.16,0,.3,0,.43s0,.26,0,.41a3.48,3.48,0,0,0,.87,2.52,3.18,3.18,0,0,0,2.4.88,5.41,5.41,0,0,0,2-.34A5.63,5.63,0,0,0,155.16,89l1,1a8.22,8.22,0,0,1-2.26,1.46A6.58,6.58,0,0,1,151.39,91.9Zm4.32-6.48c0-.26.08-.49.1-.7s0-.44,0-.7a3.48,3.48,0,0,0-.3-1.42,2.59,2.59,0,0,0-1-1.14,3.12,3.12,0,0,0-1.8-.46,3.85,3.85,0,0,0-2,.55A4.67,4.67,0,0,0,149.2,83a5.86,5.86,0,0,0-.86,2.07h7.85Z" transform="translate(0)"/>
      <path class="cls-3" d="M157.22,97.63l.15-1h3.14L163.68,75h-3.14l.14-1h4.39l-3.48,23.64Z" transform="translate(0)"/>
      <path class="cls-3" d="M178.2,91.9a4.92,4.92,0,0,1-2.8-.81,5.43,5.43,0,0,1-1.89-2.18,6.87,6.87,0,0,1-.69-3.11,6.73,6.73,0,0,1,.72-3.19,5.43,5.43,0,0,1,2-2.13,5.07,5.07,0,0,1,2.71-.75,4.55,4.55,0,0,1,2.11.47,4.71,4.71,0,0,1,1.59,1.28,4.6,4.6,0,0,1,.88,1.85l-.4.26V75h1.51V91.73h-1.51V88l.48.17a5.78,5.78,0,0,1-1,1.94,4.57,4.57,0,0,1-1.59,1.31A4.68,4.68,0,0,1,178.2,91.9Zm.24-1.4a3.68,3.68,0,0,0,2.11-.61A4.1,4.1,0,0,0,182,88.22a5.89,5.89,0,0,0,0-4.84,4,4,0,0,0-1.43-1.66,3.75,3.75,0,0,0-2.11-.6,3.82,3.82,0,0,0-2.11.6,4.1,4.1,0,0,0-1.47,1.66,5.89,5.89,0,0,0,0,4.84,4.19,4.19,0,0,0,1.47,1.67A3.75,3.75,0,0,0,178.44,90.5Z" transform="translate(0)"/>
      <path class="cls-3" d="M192.48,91.9a5.75,5.75,0,0,1-2.34-.46,4.57,4.57,0,0,1-1.69-1.27,5.7,5.7,0,0,1-1-1.92,7.86,7.86,0,0,1-.35-2.35,8,8,0,0,1,.34-2.39,5.89,5.89,0,0,1,1-2A4.67,4.67,0,0,1,190,80.21a5,5,0,0,1,2.25-.48,5.15,5.15,0,0,1,2.31.47,4.25,4.25,0,0,1,1.59,1.27,5.56,5.56,0,0,1,.91,1.76,6.5,6.5,0,0,1,.3,2c0,.12,0,.29,0,.5a3.54,3.54,0,0,1-.06.53h-8.76a4.65,4.65,0,0,0,1.09,3.17,3.65,3.65,0,0,0,2.82,1.12,4.86,4.86,0,0,0,1.93-.34A4.66,4.66,0,0,0,196,89L197,90a6.55,6.55,0,0,1-1.37,1.12,5.41,5.41,0,0,1-1.47.62A6.64,6.64,0,0,1,192.48,91.9Zm3.41-6.46a1.75,1.75,0,0,0,.05-.4v-.39a4.07,4.07,0,0,0-.21-1.27,3.45,3.45,0,0,0-.63-1.18,3.29,3.29,0,0,0-1.13-.86,3.73,3.73,0,0,0-1.66-.34,3.39,3.39,0,0,0-1.93.55A3.72,3.72,0,0,0,189.1,83a5.18,5.18,0,0,0-.53,2.06h7.82Zm-4.18-7.08L194.28,75h1.63l-3,3.36Z" transform="translate(0)"/>
      <path class="cls-3" d="M204.19,91.9a5.93,5.93,0,0,1-2.12-.36,5.15,5.15,0,0,1-1.64-1,4.65,4.65,0,0,1-1.06-1.35l1.08-.87A3.79,3.79,0,0,0,201.88,90a4.12,4.12,0,0,0,2.31.63,3.33,3.33,0,0,0,2-.56,1.83,1.83,0,0,0,.77-1.55,1.67,1.67,0,0,0-.47-1.26,3.5,3.5,0,0,0-1.2-.71,15.1,15.1,0,0,0-1.59-.45c-.45-.11-.9-.25-1.35-.4a5.4,5.4,0,0,1-1.21-.57,2.7,2.7,0,0,1-.85-.9,2.94,2.94,0,0,1,.78-3.63,4.45,4.45,0,0,1,2.84-.86,5.25,5.25,0,0,1,2.41.56A3.85,3.85,0,0,1,208.05,82l-1,.72a3.07,3.07,0,0,0-1.33-1.36A4,4,0,0,0,203.9,81a3.09,3.09,0,0,0-1.78.48,1.48,1.48,0,0,0-.71,1.3,1.41,1.41,0,0,0,.33,1,2.52,2.52,0,0,0,1,.61,10,10,0,0,0,1.47.43c.51.12,1,.25,1.52.41a7,7,0,0,1,1.39.61,2.77,2.77,0,0,1,1,1,3,3,0,0,1,.37,1.58,3.27,3.27,0,0,1-2,3.12A5.46,5.46,0,0,1,204.19,91.9Z" transform="translate(0)"/>
      <path class="cls-3" d="M211.46,77.59V75h1.8v2.59Zm.15,14.14V79.9h1.51V91.73Z" transform="translate(0)"/>
      <path class="cls-3" d="M221.47,96.82a7.31,7.31,0,0,1-4-.94,2.92,2.92,0,0,1-1.45-2.59V93a1.15,1.15,0,0,1,0-.33l2.74-2.18.58.38L217.56,93a.55.55,0,0,0,0,.18v.16a1.83,1.83,0,0,0,1.1,1.72,6,6,0,0,0,2.83.58,5.44,5.44,0,0,0,2.41-.47,1.53,1.53,0,0,0,1-1.45,1.32,1.32,0,0,0-.32-.92,2.23,2.23,0,0,0-.9-.56,9.21,9.21,0,0,0-1.35-.33l-1.65-.28a14.32,14.32,0,0,1-2-.47A3.93,3.93,0,0,1,217,90.3a2,2,0,0,1-.62-1.52,2.24,2.24,0,0,1,.53-1.46,4.41,4.41,0,0,1,1.47-1.09l1,.67a2.32,2.32,0,0,0-1.16.66,1.54,1.54,0,0,0-.35,1,1.15,1.15,0,0,0,.38.89,2.48,2.48,0,0,0,1,.51,11.88,11.88,0,0,0,1.55.3l2.1.36a9,9,0,0,1,1.77.53,3.23,3.23,0,0,1,1.23.9,2.41,2.41,0,0,1,.44,1.5A2.72,2.72,0,0,1,225,96,6.48,6.48,0,0,1,221.47,96.82Zm-.34-9a5.09,5.09,0,0,1-2.31-.51,3.74,3.74,0,0,1-1.58-1.41,3.88,3.88,0,0,1-.57-2.09,3.92,3.92,0,0,1,.59-2.13,4.06,4.06,0,0,1,1.6-1.44,5.11,5.11,0,0,1,4.45,0,4,4,0,0,1,2.17,3.64,3.81,3.81,0,0,1-.56,2.06,3.74,3.74,0,0,1-1.54,1.38A4.91,4.91,0,0,1,221.13,87.82Zm0-1.25A2.68,2.68,0,0,0,224,83.78a2.76,2.76,0,0,0-.8-2,2.79,2.79,0,0,0-2.06-.78,2.93,2.93,0,0,0-2.11.79,2.71,2.71,0,0,0-.82,2,2.75,2.75,0,0,0,.79,2A2.86,2.86,0,0,0,221.11,86.57Zm3.63-4.63-1.11-.75,2.38-2,.77,1Z" transform="translate(0)"/>
      <path class="cls-3" d="M229,91.73V79.9h1.54v2.76l-.36.12a4.63,4.63,0,0,1,.89-1.66,3.79,3.79,0,0,1,1.38-1,4.29,4.29,0,0,1,1.78-.36,3.9,3.9,0,0,1,3,1.14,4.87,4.87,0,0,1,1.08,3.47v7.39h-1.51V84.89a4.72,4.72,0,0,0-.73-2.91,2.62,2.62,0,0,0-2.19-.93,2.91,2.91,0,0,0-2.93,2,7.71,7.71,0,0,0-.41,2.77v5.86Z" transform="translate(0)"/>
      <path class="cls-3" d="M246.62,91.9a5.75,5.75,0,0,1-2.34-.46,4.57,4.57,0,0,1-1.69-1.27,5.7,5.7,0,0,1-1-1.92,7.86,7.86,0,0,1-.35-2.35,8,8,0,0,1,.34-2.39,6.08,6.08,0,0,1,1-2,4.7,4.7,0,0,1,1.64-1.33,5,5,0,0,1,2.24-.48,5.19,5.19,0,0,1,2.32.47,4.22,4.22,0,0,1,1.58,1.27,5.56,5.56,0,0,1,.91,1.76,6.5,6.5,0,0,1,.3,2c0,.12,0,.29,0,.5a3.54,3.54,0,0,1-.06.53h-8.76a4.7,4.7,0,0,0,1.09,3.17,3.67,3.67,0,0,0,2.82,1.12,4.83,4.83,0,0,0,1.93-.34A4.57,4.57,0,0,0,250.1,89l1.08,1a6.51,6.51,0,0,1-1.36,1.12,5.47,5.47,0,0,1-1.48.62A6.59,6.59,0,0,1,246.62,91.9ZM250,85.44a1.75,1.75,0,0,0,.05-.4v-.39a4.37,4.37,0,0,0-.2-1.27,3.47,3.47,0,0,0-.64-1.18,3.2,3.2,0,0,0-1.13-.86,3.68,3.68,0,0,0-1.65-.34,3.42,3.42,0,0,0-1.94.55A3.72,3.72,0,0,0,243.24,83a5.18,5.18,0,0,0-.53,2.06h7.83Z" transform="translate(0)"/>
      <path class="cls-3" d="M264.84,91.9a4.37,4.37,0,0,1-2.16-.52,3.41,3.41,0,0,1-1.41-1.54,6.06,6.06,0,0,1-.49-2.58V79.9h1.51v6.84a5.92,5.92,0,0,0,.34,2.14,2.58,2.58,0,0,0,1,1.28,3,3,0,0,0,1.64.42,3.12,3.12,0,0,0,1.8-.51,3.21,3.21,0,0,0,1.14-1.53,7.58,7.58,0,0,0,.39-2.64v-6h1.51V91.73h-1.51V89h.36a3.9,3.9,0,0,1-1.55,2.19A4.45,4.45,0,0,1,264.84,91.9Z" transform="translate(0)"/>
      <path class="cls-3" d="M273.81,91.73V79.9h1.54v2.76l-.36.12a4.63,4.63,0,0,1,.89-1.66,3.79,3.79,0,0,1,1.38-1,4.3,4.3,0,0,1,1.79-.36,3.93,3.93,0,0,1,3,1.14,4.87,4.87,0,0,1,1.08,3.47v7.39h-1.52V84.89a4.72,4.72,0,0,0-.73-2.91,2.62,2.62,0,0,0-2.19-.93,3.16,3.16,0,0,0-1.77.49,3.13,3.13,0,0,0-1.16,1.56,7.94,7.94,0,0,0-.41,2.77v5.86Z" transform="translate(0)"/>
      <path class="cls-3" d="M295.13,91.9a2.12,2.12,0,0,1-1.61-.64,2.88,2.88,0,0,1-.6-2V75h1.51V89a1.76,1.76,0,0,0,.31,1.17,1.06,1.06,0,0,0,.84.36,2.61,2.61,0,0,0,.53-.06l.6-.15v1.29a4.87,4.87,0,0,1-.83.23A3.62,3.62,0,0,1,295.13,91.9Z" transform="translate(0)"/>
      <path class="cls-3" d="M302.88,91.9a5.45,5.45,0,0,1-2.3-.46,3.41,3.41,0,0,1-1.48-1.26,3.69,3.69,0,0,1-.15-3.5,3,3,0,0,1,1-1.05,4,4,0,0,1,1.47-.6,9.14,9.14,0,0,1,1.79-.17h3.91V86h-3.72a7.45,7.45,0,0,0-1.35.12,2.43,2.43,0,0,0-1.12.48,1.69,1.69,0,0,0-.59.68,2.35,2.35,0,0,0-.2,1A2.08,2.08,0,0,0,300.9,90a3.21,3.21,0,0,0,2.12.64,3.79,3.79,0,0,0,2-.52,4,4,0,0,0,2-3.47l.65.72a5.32,5.32,0,0,1-.77,2.38,4.38,4.38,0,0,1-1.68,1.58A4.75,4.75,0,0,1,302.88,91.9Zm4.17-.17L307,89V84.36a3,3,0,0,0-3.31-3.31,4.49,4.49,0,0,0-1.95.42A4.76,4.76,0,0,0,300,82.9l-1.1-.94a6,6,0,0,1,2.15-1.69,6.37,6.37,0,0,1,2.67-.54,4.74,4.74,0,0,1,3.48,1.19,4.56,4.56,0,0,1,1.23,3.44v7.37Z" transform="translate(0)"/>
      <path class="cls-3" d="M317.71,91.9a4.69,4.69,0,0,1-2.1-.47,4.6,4.6,0,0,1-1.6-1.31,5.78,5.78,0,0,1-1-1.94l.48-.17v3.72H312V75h1.51v8.59l-.41-.24A5,5,0,0,1,314,81.5a4.83,4.83,0,0,1,1.58-1.29,4.53,4.53,0,0,1,2.09-.48,5.06,5.06,0,0,1,2.72.75,5.56,5.56,0,0,1,1.94,2.13,7.49,7.49,0,0,1,0,6.3,5.38,5.38,0,0,1-1.9,2.18A4.89,4.89,0,0,1,317.71,91.9Zm-.24-1.4a3.71,3.71,0,0,0,2.12-.61A4.14,4.14,0,0,0,321,88.22a5.79,5.79,0,0,0,0-4.84,4.05,4.05,0,0,0-1.45-1.66,3.79,3.79,0,0,0-2.12-.6,3.73,3.73,0,0,0-2.11.6,4,4,0,0,0-1.43,1.66,5.89,5.89,0,0,0,0,4.84,4.1,4.1,0,0,0,1.43,1.67A3.66,3.66,0,0,0,317.47,90.5Z" transform="translate(0)"/>
      <path class="cls-3" d="M327.26,96.6l2.19-5.26L324.76,79.9h1.66l3.82,9.91,3.84-9.91h1.65l-6.81,16.7Z" transform="translate(0)"/>
      <path class="cls-3" d="M338.3,91.73V79.9h1.54V83l-.39.07a3.8,3.8,0,0,1,.84-1.85,4.75,4.75,0,0,1,1.51-1.14,3.92,3.92,0,0,1,2.63-.28,3.6,3.6,0,0,1,.95.34l-.74,1.37a5.19,5.19,0,0,0-.7-.24,3.25,3.25,0,0,0-.74-.09,3.47,3.47,0,0,0-1.25.24,3.23,3.23,0,0,0-1.14.75,3.08,3.08,0,0,0-.76,1.38,7.1,7.1,0,0,0-.15.89,13.69,13.69,0,0,0-.06,1.46v5.79Z" transform="translate(0)"/>
      <path class="cls-3" d="M347.68,77.59V75h1.8v2.59Zm.15,14.14V79.9h1.51V91.73Z" transform="translate(0)"/>
      <path class="cls-3" d="M353,91.73V79.9h1.53v2.76l-.36.12a4.79,4.79,0,0,1,.89-1.66,3.79,3.79,0,0,1,1.38-1,4.34,4.34,0,0,1,1.79-.36,3.93,3.93,0,0,1,3,1.14,4.87,4.87,0,0,1,1.08,3.47v7.39h-1.51V84.89A4.72,4.72,0,0,0,360.1,82a2.61,2.61,0,0,0-2.19-.93,3.18,3.18,0,0,0-1.77.49A3.13,3.13,0,0,0,355,83.1a7.94,7.94,0,0,0-.41,2.77v5.86Z" transform="translate(0)"/>
      <path class="cls-3" d="M364.1,81.1V79.9h7v1.2Zm5.26,10.8a3,3,0,0,1-1.4-.32,2.07,2.07,0,0,1-.92-1,3.71,3.71,0,0,1-.32-1.67V76.51l1.53-.89v13a2.88,2.88,0,0,0,.33,1.5,1.21,1.21,0,0,0,1.14.54,3.5,3.5,0,0,0,.62-.06l.72-.15v1.2a5.66,5.66,0,0,1-.86.21A5,5,0,0,1,369.36,91.9Z" transform="translate(0)"/>
      <path class="cls-3" d="M373.72,91.73V75h1.54v7.66l-.38.12a4.35,4.35,0,0,1,.9-1.66,3.91,3.91,0,0,1,1.39-1,4.3,4.3,0,0,1,1.79-.36,3.9,3.9,0,0,1,3,1.16A5,5,0,0,1,383,84.34v7.39h-1.52V84.89a4.72,4.72,0,0,0-.73-2.91,2.62,2.62,0,0,0-2.19-.93,2.92,2.92,0,0,0-2.44,1.15,6,6,0,0,0-.9,3.67v5.86Z" transform="translate(0)"/>
      <path class="cls-3" d="M391.36,91.9a5.75,5.75,0,0,1-2.34-.46,4.57,4.57,0,0,1-1.69-1.27,5.7,5.7,0,0,1-1-1.92A7.86,7.86,0,0,1,386,85.9a8.37,8.37,0,0,1,.34-2.39,5.91,5.91,0,0,1,1-2,4.58,4.58,0,0,1,1.63-1.33,5,5,0,0,1,2.24-.48,5.19,5.19,0,0,1,2.32.47,4.22,4.22,0,0,1,1.58,1.27,5.56,5.56,0,0,1,.91,1.76,6.5,6.5,0,0,1,.3,2c0,.12,0,.29,0,.5a3.54,3.54,0,0,1-.06.53h-8.76a4.7,4.7,0,0,0,1.09,3.17,3.67,3.67,0,0,0,2.82,1.12,4.92,4.92,0,0,0,1.94-.34A4.63,4.63,0,0,0,394.84,89l1.08,1a6.51,6.51,0,0,1-1.36,1.12,5.47,5.47,0,0,1-1.48.62A6.59,6.59,0,0,1,391.36,91.9Zm3.41-6.46a1.75,1.75,0,0,0,.05-.4v-.39a4.37,4.37,0,0,0-.2-1.27A3.47,3.47,0,0,0,394,82.2a3.2,3.2,0,0,0-1.13-.86A3.65,3.65,0,0,0,391.2,81a3.42,3.42,0,0,0-1.94.55A3.72,3.72,0,0,0,388,83a5.35,5.35,0,0,0-.53,2.06h7.83Z" transform="translate(0)"/>
      <path class="cls-3" d="M398.23,95.47l2.57-7.15h1.68l-3.2,7.15Z" transform="translate(0)"/>
      <path class="cls-3" d="M80.76,119.9a4.37,4.37,0,0,1-2.16-.52,3.34,3.34,0,0,1-1.4-1.54,5.9,5.9,0,0,1-.5-2.58V107.9h1.52v6.84a5.94,5.94,0,0,0,.33,2.14,2.6,2.6,0,0,0,1,1.28,2.92,2.92,0,0,0,1.63.42,3.12,3.12,0,0,0,1.8-.51,3.21,3.21,0,0,0,1.14-1.53,7.58,7.58,0,0,0,.39-2.64v-6H86v11.83H84.5V117h.36a3.93,3.93,0,0,1-1.54,2.19A4.48,4.48,0,0,1,80.76,119.9Z" transform="translate(0)"/>
      <path class="cls-3" d="M89.74,119.73V107.9h1.53v2.76l-.36.12a4.79,4.79,0,0,1,.89-1.66,3.79,3.79,0,0,1,1.38-1,4.34,4.34,0,0,1,1.79-.36,3.93,3.93,0,0,1,3,1.14,4.87,4.87,0,0,1,1.08,3.47v7.39H97.54v-6.84A4.72,4.72,0,0,0,96.8,110a2.61,2.61,0,0,0-2.19-.93,3.18,3.18,0,0,0-1.77.49,3.13,3.13,0,0,0-1.16,1.56,7.94,7.94,0,0,0-.41,2.77v5.86Z" transform="translate(0)"/>
      <path class="cls-3" d="M113.74,119.9a5.71,5.71,0,0,1-2.34-.46,4.53,4.53,0,0,1-1.7-1.27,5.89,5.89,0,0,1-1-1.92,7.86,7.86,0,0,1-.35-2.35,8.37,8.37,0,0,1,.34-2.39,6.1,6.1,0,0,1,1-2,4.58,4.58,0,0,1,1.63-1.33,5,5,0,0,1,2.24-.48,5.19,5.19,0,0,1,2.32.47,4.14,4.14,0,0,1,1.58,1.27,5.56,5.56,0,0,1,.91,1.76,6.21,6.21,0,0,1,.31,2c0,.12,0,.29,0,.5a2.58,2.58,0,0,1-.06.53h-8.76a4.65,4.65,0,0,0,1.1,3.17,3.64,3.64,0,0,0,2.82,1.12,4.9,4.9,0,0,0,1.93-.34,4.77,4.77,0,0,0,1.55-1.17l1.07,1a6.51,6.51,0,0,1-1.36,1.12,5.47,5.47,0,0,1-1.48.62A6.57,6.57,0,0,1,113.74,119.9Zm3.4-6.46a1.75,1.75,0,0,0,0-.4v-.39a4.37,4.37,0,0,0-.2-1.27,3.47,3.47,0,0,0-.64-1.18,3.2,3.2,0,0,0-1.13-.86,3.65,3.65,0,0,0-1.65-.34,3.36,3.36,0,0,0-1.93.55,3.67,3.67,0,0,0-1.29,1.47,5.35,5.35,0,0,0-.53,2.06h7.83Z" transform="translate(0)"/>
      <path class="cls-3" d="M121.8,119.73V107.9h1.53v2.76l-.36.12a4.79,4.79,0,0,1,.89-1.66,4,4,0,0,1,1.38-1,4.34,4.34,0,0,1,1.79-.36,3.93,3.93,0,0,1,3,1.14,4.87,4.87,0,0,1,1.08,3.47v7.39H129.6v-6.84a4.79,4.79,0,0,0-.73-2.91,2.63,2.63,0,0,0-2.2-.93,3.13,3.13,0,0,0-1.76.49,3.09,3.09,0,0,0-1.17,1.56,7.94,7.94,0,0,0-.41,2.77v5.86Z" transform="translate(0)"/>
      <path class="cls-3" d="M138.48,119.9a6,6,0,0,1-2.13-.36,5.21,5.21,0,0,1-1.63-1,4.87,4.87,0,0,1-1.07-1.35l1.08-.87a3.86,3.86,0,0,0,1.43,1.65,4.17,4.17,0,0,0,2.32.63,3.33,3.33,0,0,0,2-.56,1.83,1.83,0,0,0,.77-1.55,1.67,1.67,0,0,0-.47-1.26,3.5,3.5,0,0,0-1.2-.71,14.64,14.64,0,0,0-1.6-.45c-.45-.11-.89-.25-1.34-.4a5.4,5.4,0,0,1-1.21-.57,2.74,2.74,0,0,1-.86-.9,2.86,2.86,0,0,1-.31-1.37,2.77,2.77,0,0,1,1.09-2.26,4.5,4.5,0,0,1,2.85-.86,5.25,5.25,0,0,1,2.41.56,3.9,3.9,0,0,1,1.69,1.72l-1,.72a3.12,3.12,0,0,0-1.33-1.36,4,4,0,0,0-1.84-.42,3.12,3.12,0,0,0-1.79.48,1.5,1.5,0,0,0-.71,1.3,1.41,1.41,0,0,0,.34,1,2.37,2.37,0,0,0,1,.61,9.89,9.89,0,0,0,1.46.43c.52.12,1,.25,1.53.41a7.3,7.3,0,0,1,1.39.61,2.85,2.85,0,0,1,1,1,3,3,0,0,1,.37,1.58,3.4,3.4,0,0,1-.53,1.89,3.37,3.37,0,0,1-1.49,1.23A5.41,5.41,0,0,1,138.48,119.9Z" transform="translate(0)"/>
      <path class="cls-3" d="M150.62,119.9a5.75,5.75,0,0,1-2.34-.46,4.57,4.57,0,0,1-1.69-1.27,5.7,5.7,0,0,1-1-1.92,7.86,7.86,0,0,1-.35-2.35,8,8,0,0,1,.34-2.39,5.89,5.89,0,0,1,1-2,4.61,4.61,0,0,1,1.64-1.33,5,5,0,0,1,2.24-.48,5.19,5.19,0,0,1,2.32.47,4.3,4.3,0,0,1,1.58,1.27,5.56,5.56,0,0,1,.91,1.76,6.5,6.5,0,0,1,.3,2c0,.12,0,.29,0,.5a3.54,3.54,0,0,1-.06.53h-8.76a4.7,4.7,0,0,0,1.09,3.17,3.67,3.67,0,0,0,2.82,1.12,4.86,4.86,0,0,0,1.93-.34A4.57,4.57,0,0,0,154.1,117l1.08,1a6.55,6.55,0,0,1-1.37,1.12,5.28,5.28,0,0,1-1.47.62A6.59,6.59,0,0,1,150.62,119.9Zm3.41-6.46a1.75,1.75,0,0,0,.05-.4v-.39a4.07,4.07,0,0,0-.21-1.27,3.23,3.23,0,0,0-1.76-2,3.7,3.7,0,0,0-1.66-.34,3.39,3.39,0,0,0-1.93.55,3.72,3.72,0,0,0-1.28,1.47,5.18,5.18,0,0,0-.53,2.06h7.82Z" transform="translate(0)"/>
      <path class="cls-3" d="M158.69,119.73V107.9h1.53v3h-.31a5.28,5.28,0,0,1,.58-1.44,3.46,3.46,0,0,1,.86-1,3.51,3.51,0,0,1,1.09-.59,3.92,3.92,0,0,1,1.24-.19,4.24,4.24,0,0,1,1.86.39,3.26,3.26,0,0,1,1.31,1.22,5.65,5.65,0,0,1,.69,2.08l-.84,0a7.48,7.48,0,0,1,.88-2,3.69,3.69,0,0,1,1.35-1.26,4.06,4.06,0,0,1,1.92-.43,3.73,3.73,0,0,1,2.31.66,3.77,3.77,0,0,1,1.25,1.76,7.85,7.85,0,0,1,.38,2.52v7.06h-1.51V113a7.26,7.26,0,0,0-.27-2.11,2.6,2.6,0,0,0-.86-1.37,2.53,2.53,0,0,0-1.63-.48,2.65,2.65,0,0,0-1.57.47,2.92,2.92,0,0,0-1.06,1.42,6.65,6.65,0,0,0-.37,2.4v6.39H166v-6.94a4.8,4.8,0,0,0-.68-2.82,2.38,2.38,0,0,0-2-.92,2.71,2.71,0,0,0-1.58.48,3,3,0,0,0-1.08,1.46,6.87,6.87,0,0,0-.39,2.5v6.24Z" transform="translate(0)"/>
      <path class="cls-3" d="M184.05,119.9a4.72,4.72,0,0,1-2.1-.47,4.48,4.48,0,0,1-1.59-1.31,5.78,5.78,0,0,1-1-1.94l.48-.17v3.72h-1.51V103h1.51v8.59l-.41-.24a5,5,0,0,1,.91-1.85,4.76,4.76,0,0,1,1.59-1.29,4.49,4.49,0,0,1,2.08-.48,5.09,5.09,0,0,1,2.73.75,5.54,5.54,0,0,1,1.93,2.13,6.73,6.73,0,0,1,.72,3.19,7,7,0,0,1-.68,3.11,5.46,5.46,0,0,1-1.9,2.18A4.92,4.92,0,0,1,184.05,119.9Zm-.24-1.4a3.77,3.77,0,0,0,2.13-.61,4.22,4.22,0,0,0,1.45-1.67,5.79,5.79,0,0,0,0-4.84,4.12,4.12,0,0,0-1.45-1.66,3.84,3.84,0,0,0-2.13-.6,3.75,3.75,0,0,0-2.11.6,4.08,4.08,0,0,0-1.43,1.66,6,6,0,0,0,0,4.84,4.18,4.18,0,0,0,1.43,1.67A3.68,3.68,0,0,0,183.81,118.5Z" transform="translate(0)"/>
      <path class="cls-3" d="M194.78,119.9a2.13,2.13,0,0,1-1.61-.64,2.88,2.88,0,0,1-.6-2V103h1.51v14a1.76,1.76,0,0,0,.32,1.17,1,1,0,0,0,.84.36,2.69,2.69,0,0,0,.53-.06l.6-.15v1.29a5.14,5.14,0,0,1-.83.23A3.71,3.71,0,0,1,194.78,119.9Z" transform="translate(0)"/>
      <path class="cls-3" d="M203.66,119.9a5.75,5.75,0,0,1-2.34-.46,4.57,4.57,0,0,1-1.69-1.27,5.7,5.7,0,0,1-1-1.92,7.86,7.86,0,0,1-.35-2.35,8,8,0,0,1,.34-2.39,5.89,5.89,0,0,1,1-2,4.61,4.61,0,0,1,1.64-1.33,5,5,0,0,1,2.24-.48,5.19,5.19,0,0,1,2.32.47,4.3,4.3,0,0,1,1.58,1.27,5.56,5.56,0,0,1,.91,1.76,6.5,6.5,0,0,1,.3,2c0,.12,0,.29,0,.5a3.54,3.54,0,0,1-.06.53h-8.76a4.7,4.7,0,0,0,1.09,3.17,3.67,3.67,0,0,0,2.82,1.12,4.86,4.86,0,0,0,1.93-.34,4.57,4.57,0,0,0,1.55-1.17l1.08,1a6.55,6.55,0,0,1-1.37,1.12,5.28,5.28,0,0,1-1.47.62A6.59,6.59,0,0,1,203.66,119.9Zm3.41-6.46a1.75,1.75,0,0,0,.05-.4v-.39a4.07,4.07,0,0,0-.21-1.27,3.23,3.23,0,0,0-1.76-2,3.73,3.73,0,0,0-1.66-.34,3.39,3.39,0,0,0-1.93.55,3.72,3.72,0,0,0-1.28,1.47,5.18,5.18,0,0,0-.53,2.06h7.82Z" transform="translate(0)"/>
      <path class="cls-3" d="M222.74,119.9a5.14,5.14,0,0,1-2.23-.47,4.75,4.75,0,0,1-1.67-1.31,5.94,5.94,0,0,1-1-1.94,7.65,7.65,0,0,1-.36-2.38,7.51,7.51,0,0,1,.36-2.35,5.89,5.89,0,0,1,1-2,4.72,4.72,0,0,1,1.67-1.3,5,5,0,0,1,2.23-.47,5.06,5.06,0,0,1,2.83.79,4.72,4.72,0,0,1,1.83,2.42l-1.37.53a3.69,3.69,0,0,0-1.23-1.77,3.21,3.21,0,0,0-2.06-.65,3.32,3.32,0,0,0-2.14.67,4.1,4.1,0,0,0-1.26,1.75,6.39,6.39,0,0,0-.42,2.33,6.48,6.48,0,0,0,.42,2.34,4,4,0,0,0,1.26,1.76,3.32,3.32,0,0,0,2.14.68,3.27,3.27,0,0,0,2.06-.65,3.68,3.68,0,0,0,1.23-1.8l1.37.53a4.76,4.76,0,0,1-1.8,2.42A5.08,5.08,0,0,1,222.74,119.9Z" transform="translate(0)"/>
      <path class="cls-3" d="M235.27,119.9a5.52,5.52,0,0,1-2.92-.78,5.42,5.42,0,0,1-2-2.16,6.75,6.75,0,0,1-.72-3.16,6.64,6.64,0,0,1,.71-3.14,5.23,5.23,0,0,1,2-2.15,5.52,5.52,0,0,1,2.94-.78,5.41,5.41,0,0,1,2.91.78,5.53,5.53,0,0,1,2,2.15,6.64,6.64,0,0,1,.73,3.14,6.75,6.75,0,0,1-.73,3.16,5.51,5.51,0,0,1-2,2.16A5.43,5.43,0,0,1,235.27,119.9Zm0-1.35a3.81,3.81,0,0,0,3.6-2.27,5.84,5.84,0,0,0,.5-2.48,5.92,5.92,0,0,0-.5-2.51,3.85,3.85,0,0,0-1.43-1.65,3.9,3.9,0,0,0-2.17-.59,4,4,0,0,0-2.19.6,4.09,4.09,0,0,0-1.45,1.65,6.33,6.33,0,0,0,0,5,3.86,3.86,0,0,0,3.64,2.27Z" transform="translate(0)"/>
      <path class="cls-3" d="M244.05,119.73V107.9h1.54v2.76l-.36.12a4.63,4.63,0,0,1,.89-1.66,3.79,3.79,0,0,1,1.38-1,4.29,4.29,0,0,1,1.78-.36,3.93,3.93,0,0,1,3,1.14,4.87,4.87,0,0,1,1.08,3.47v7.39h-1.51v-6.84a4.72,4.72,0,0,0-.73-2.91,2.63,2.63,0,0,0-2.2-.93,2.91,2.91,0,0,0-2.92,2,7.71,7.71,0,0,0-.41,2.77v5.86Z" transform="translate(0)"/>
      <path class="cls-3" d="M257.73,119.73V109.1h-2.61v-1.2h2.64v-1.71a4.29,4.29,0,0,1,.39-2,2.32,2.32,0,0,1,1.11-1.06,3.71,3.71,0,0,1,1.59-.33,5.05,5.05,0,0,1,1.08.11,3.24,3.24,0,0,1,.91.35l-.5,1.15a2.31,2.31,0,0,0-.61-.25,2.65,2.65,0,0,0-.71-.09,1.61,1.61,0,0,0-1.33.54,2.37,2.37,0,0,0-.44,1.55v1.71h2.87v1.2h-2.87v10.63Z" transform="translate(0)"/>
      <path class="cls-3" d="M268.39,119.9a4.37,4.37,0,0,1-2.16-.52,3.41,3.41,0,0,1-1.41-1.54,6.06,6.06,0,0,1-.49-2.58V107.9h1.51v6.84a5.92,5.92,0,0,0,.34,2.14,2.54,2.54,0,0,0,1,1.28,2.92,2.92,0,0,0,1.63.42,3.12,3.12,0,0,0,1.8-.51,3.21,3.21,0,0,0,1.14-1.53,7.58,7.58,0,0,0,.39-2.64v-6h1.51v11.83h-1.51V117h.36a3.9,3.9,0,0,1-1.55,2.19A4.45,4.45,0,0,1,268.39,119.9Z" transform="translate(0)"/>
      <path class="cls-3" d="M281,119.9a5.93,5.93,0,0,1-2.12-.36,5.1,5.1,0,0,1-1.63-1,4.69,4.69,0,0,1-1.07-1.35l1.08-.87a3.79,3.79,0,0,0,1.43,1.65,4.16,4.16,0,0,0,2.31.63,3.33,3.33,0,0,0,2-.56,1.8,1.8,0,0,0,.77-1.55,1.64,1.64,0,0,0-.47-1.26,3.5,3.5,0,0,0-1.2-.71,14.44,14.44,0,0,0-1.59-.45c-.45-.11-.9-.25-1.35-.4a5.62,5.62,0,0,1-1.21-.57,2.7,2.7,0,0,1-.85-.9,3,3,0,0,1,.78-3.63,4.49,4.49,0,0,1,2.84-.86,5.29,5.29,0,0,1,2.42.56,4,4,0,0,1,1.69,1.72l-1,.72a3.07,3.07,0,0,0-1.33-1.36,4,4,0,0,0-1.83-.42,3.12,3.12,0,0,0-1.79.48,1.5,1.5,0,0,0-.71,1.3,1.37,1.37,0,0,0,.34,1,2.37,2.37,0,0,0,1,.61,9.54,9.54,0,0,0,1.46.43c.51.12,1,.25,1.52.41a7.4,7.4,0,0,1,1.4.61,2.74,2.74,0,0,1,1,1,3,3,0,0,1,.38,1.58,3.4,3.4,0,0,1-.53,1.89,3.37,3.37,0,0,1-1.49,1.23A5.42,5.42,0,0,1,281,119.9Z" transform="translate(0)"/>
      <path class="cls-3" d="M299.47,119.9a4.92,4.92,0,0,1-2.8-.81,5.36,5.36,0,0,1-1.89-2.18,6.87,6.87,0,0,1-.69-3.11,6.73,6.73,0,0,1,.72-3.19,5.43,5.43,0,0,1,1.95-2.13,5.07,5.07,0,0,1,2.71-.75,4.55,4.55,0,0,1,2.11.47,4.68,4.68,0,0,1,1.58,1.28,4.49,4.49,0,0,1,.89,1.85l-.41.26V103h1.52v16.73h-1.52V116l.48.17a5.43,5.43,0,0,1-1,1.94,4.53,4.53,0,0,1-1.58,1.31A4.68,4.68,0,0,1,299.47,119.9Zm.24-1.4a3.68,3.68,0,0,0,2.11-.61,4.18,4.18,0,0,0,1.43-1.67,6,6,0,0,0,0-4.84,4.08,4.08,0,0,0-1.43-1.66,3.75,3.75,0,0,0-2.11-.6,3.8,3.8,0,0,0-2.11.6,4,4,0,0,0-1.47,1.66,5.79,5.79,0,0,0,0,4.84,4.12,4.12,0,0,0,1.47,1.67A3.73,3.73,0,0,0,299.71,118.5Z" transform="translate(0)"/>
      <path class="cls-3" d="M313.75,119.9a5.75,5.75,0,0,1-2.34-.46,4.49,4.49,0,0,1-1.69-1.27,5.7,5.7,0,0,1-1-1.92,7.55,7.55,0,0,1-.35-2.35,8.37,8.37,0,0,1,.33-2.39,6.1,6.1,0,0,1,1-2,4.58,4.58,0,0,1,1.63-1.33,5,5,0,0,1,2.25-.48,5.18,5.18,0,0,1,2.31.47,4.25,4.25,0,0,1,1.59,1.27,5.78,5.78,0,0,1,.91,1.76,6.5,6.5,0,0,1,.3,2c0,.12,0,.29,0,.5a3.54,3.54,0,0,1-.06.53h-8.76a4.65,4.65,0,0,0,1.09,3.17,3.64,3.64,0,0,0,2.82,1.12,4.9,4.9,0,0,0,1.93-.34,4.66,4.66,0,0,0,1.55-1.17l1.08,1a6.82,6.82,0,0,1-1.37,1.12,5.34,5.34,0,0,1-1.48.62A6.57,6.57,0,0,1,313.75,119.9Zm3.41-6.46a1.75,1.75,0,0,0,0-.4v-.39a4.05,4.05,0,0,0-.2-1.27,3.47,3.47,0,0,0-.64-1.18,3.16,3.16,0,0,0-1.12-.86,3.73,3.73,0,0,0-1.66-.34,3.36,3.36,0,0,0-1.93.55,3.83,3.83,0,0,0-1.29,1.47,5.17,5.17,0,0,0-.52,2.06h7.82Z" transform="translate(0)"/>
      <path class="cls-3" d="M332.83,119.9a5.22,5.22,0,0,1-2.24-.47,4.72,4.72,0,0,1-1.66-1.31,6,6,0,0,1-1.05-1.94,7.65,7.65,0,0,1-.36-2.38,7.51,7.51,0,0,1,.36-2.35,5.91,5.91,0,0,1,1.05-2,4.69,4.69,0,0,1,1.66-1.3,5.51,5.51,0,0,1,5.07.32,4.7,4.7,0,0,1,1.82,2.42l-1.36.53a3.69,3.69,0,0,0-1.23-1.77,3.23,3.23,0,0,0-2.06-.65,3.3,3.3,0,0,0-2.14.67,4.1,4.1,0,0,0-1.26,1.75,6.39,6.39,0,0,0-.42,2.33,6.48,6.48,0,0,0,.42,2.34,4,4,0,0,0,1.26,1.76,3.65,3.65,0,0,0,4.2,0,3.68,3.68,0,0,0,1.23-1.8l1.36.53a4.65,4.65,0,0,1-1.8,2.42A5,5,0,0,1,332.83,119.9Z" transform="translate(0)"/>
      <path class="cls-3" d="M340.43,119.73V103H342v7.66l-.38.12a4.35,4.35,0,0,1,.9-1.66,3.91,3.91,0,0,1,1.39-1,4.34,4.34,0,0,1,1.79-.36,3.9,3.9,0,0,1,3,1.16,5,5,0,0,1,1.07,3.45v7.39h-1.51v-6.84a4.72,4.72,0,0,0-.74-2.91,2.62,2.62,0,0,0-2.19-.93,2.92,2.92,0,0,0-2.44,1.15,6,6,0,0,0-.9,3.67v5.86Z" transform="translate(0)"/>
      <path class="cls-3" d="M358.08,119.9a5.75,5.75,0,0,1-2.34-.46,4.61,4.61,0,0,1-1.7-1.27,5.89,5.89,0,0,1-1-1.92,7.86,7.86,0,0,1-.34-2.35,8.37,8.37,0,0,1,.33-2.39,6.1,6.1,0,0,1,1-2,4.58,4.58,0,0,1,1.63-1.33,5,5,0,0,1,2.24-.48,5.19,5.19,0,0,1,2.32.47,4.14,4.14,0,0,1,1.58,1.27,5.59,5.59,0,0,1,.92,1.76,6.5,6.5,0,0,1,.3,2c0,.12,0,.29,0,.5a2,2,0,0,1-.06.53h-8.76a4.7,4.7,0,0,0,1.1,3.17,3.64,3.64,0,0,0,2.82,1.12,4.9,4.9,0,0,0,1.93-.34,4.77,4.77,0,0,0,1.55-1.17l1.08,1a6.82,6.82,0,0,1-1.37,1.12,5.47,5.47,0,0,1-1.48.62A6.57,6.57,0,0,1,358.08,119.9Zm3.4-6.46a1.33,1.33,0,0,0,0-.4v-.39a4.37,4.37,0,0,0-.2-1.27,3.47,3.47,0,0,0-.64-1.18,3.2,3.2,0,0,0-1.13-.86,3.65,3.65,0,0,0-1.65-.34,3.36,3.36,0,0,0-1.93.55,3.75,3.75,0,0,0-1.29,1.47,5.35,5.35,0,0,0-.53,2.06H362Z" transform="translate(0)"/>
      <path class="cls-3" d="M366.14,119.73V107.9h1.53v3h-.31a5.62,5.62,0,0,1,.58-1.44,3.62,3.62,0,0,1,.86-1,3.51,3.51,0,0,1,1.09-.59,4,4,0,0,1,1.24-.19,4.21,4.21,0,0,1,1.86.39,3.19,3.19,0,0,1,1.31,1.22,5.65,5.65,0,0,1,.7,2.08l-.84,0a7.19,7.19,0,0,1,.87-2,3.64,3.64,0,0,1,1.36-1.26,4,4,0,0,1,1.92-.43,3.44,3.44,0,0,1,3.55,2.42,7.58,7.58,0,0,1,.38,2.52v7.06h-1.51V113a7.65,7.65,0,0,0-.26-2.11,2.67,2.67,0,0,0-.87-1.37,2.53,2.53,0,0,0-1.63-.48,2.67,2.67,0,0,0-1.57.47,2.92,2.92,0,0,0-1.06,1.42,6.65,6.65,0,0,0-.37,2.4v6.39h-1.54v-6.94a4.73,4.73,0,0,0-.68-2.82,2.38,2.38,0,0,0-2-.92,2.71,2.71,0,0,0-1.58.48,3,3,0,0,0-1.08,1.46,6.87,6.87,0,0,0-.39,2.5v6.24Z" transform="translate(0)"/>
      <path class="cls-3" d="M385.67,105.59V103h1.8v2.59Zm.15,14.14V107.9h1.51v11.83Z" transform="translate(0)"/>
      <path class="cls-3" d="M391,119.73V107.9h1.53v2.76l-.36.12a4.79,4.79,0,0,1,.89-1.66,3.79,3.79,0,0,1,1.38-1,4.34,4.34,0,0,1,1.79-.36,3.93,3.93,0,0,1,3,1.14,4.87,4.87,0,0,1,1.08,3.47v7.39h-1.51v-6.84a4.72,4.72,0,0,0-.74-2.91,2.61,2.61,0,0,0-2.19-.93,3.18,3.18,0,0,0-1.77.49A3.13,3.13,0,0,0,393,111.1a7.94,7.94,0,0,0-.41,2.77v5.86Z" transform="translate(0)"/>
      <path class="cls-3" d="M407.71,119.9a6,6,0,0,1-2.13-.36,5.21,5.21,0,0,1-1.63-1,4.69,4.69,0,0,1-1.07-1.35l1.08-.87a3.86,3.86,0,0,0,1.43,1.65,4.17,4.17,0,0,0,2.32.63,3.37,3.37,0,0,0,2-.56,1.82,1.82,0,0,0,.76-1.55,1.67,1.67,0,0,0-.46-1.26,3.71,3.71,0,0,0-1.2-.71,14.64,14.64,0,0,0-1.6-.45c-.45-.11-.9-.25-1.34-.4a5.48,5.48,0,0,1-1.22-.57,2.7,2.7,0,0,1-.85-.9,3,3,0,0,1,.78-3.63,4.5,4.5,0,0,1,2.85-.86,5.25,5.25,0,0,1,2.41.56,3.9,3.9,0,0,1,1.69,1.72l-1,.72a3.09,3.09,0,0,0-1.34-1.36,4,4,0,0,0-1.83-.42,3.12,3.12,0,0,0-1.79.48,1.5,1.5,0,0,0-.71,1.3,1.37,1.37,0,0,0,.34,1,2.37,2.37,0,0,0,1,.61,9.54,9.54,0,0,0,1.46.43c.51.12,1,.25,1.53.41a7.59,7.59,0,0,1,1.39.61,2.85,2.85,0,0,1,1,1,3.13,3.13,0,0,1,.37,1.58,3.4,3.4,0,0,1-.53,1.89,3.37,3.37,0,0,1-1.49,1.23A5.41,5.41,0,0,1,407.71,119.9Z" transform="translate(0)"/>
      <path class="cls-3" d="M81.72,147.9a5.75,5.75,0,0,1-2.34-.46,4.57,4.57,0,0,1-1.69-1.27,5.7,5.7,0,0,1-1-1.92,7.86,7.86,0,0,1-.35-2.35,8,8,0,0,1,.34-2.39,5.89,5.89,0,0,1,1-2,4.67,4.67,0,0,1,1.63-1.33,5,5,0,0,1,2.25-.48,5.15,5.15,0,0,1,2.31.47,4.25,4.25,0,0,1,1.59,1.27,5.56,5.56,0,0,1,.91,1.76,6.5,6.5,0,0,1,.3,2c0,.12,0,.29,0,.5a3.54,3.54,0,0,1-.06.53H77.81a4.65,4.65,0,0,0,1.09,3.17,3.67,3.67,0,0,0,2.82,1.12,4.86,4.86,0,0,0,1.93-.34A4.66,4.66,0,0,0,85.2,145l1.08,1a6.55,6.55,0,0,1-1.37,1.12,5.28,5.28,0,0,1-1.47.62A6.64,6.64,0,0,1,81.72,147.9Zm3.41-6.46a1.75,1.75,0,0,0,.05-.4v-.39a4.07,4.07,0,0,0-.21-1.27,3.45,3.45,0,0,0-.63-1.18,3.29,3.29,0,0,0-1.13-.86,3.73,3.73,0,0,0-1.66-.34,3.39,3.39,0,0,0-1.93.55A3.72,3.72,0,0,0,78.34,139a5.18,5.18,0,0,0-.53,2.06h7.82Z" transform="translate(0)"/>
      <path class="cls-3" d="M87.89,137.1v-1.2h7v1.2Zm5.25,10.8a3,3,0,0,1-1.39-.32,2,2,0,0,1-.92-1,3.71,3.71,0,0,1-.33-1.67V132.51l1.54-.89v13a3,3,0,0,0,.32,1.5,1.23,1.23,0,0,0,1.14.54,3.61,3.61,0,0,0,.63-.06l.72-.15v1.2a5.5,5.5,0,0,1-.87.21A4.78,4.78,0,0,1,93.14,147.9Z" transform="translate(0)"/>
      <path class="cls-3" d="M103.75,152.62V135.9h1.51v3.72l-.48-.34a5.63,5.63,0,0,1,1-1.92,4.26,4.26,0,0,1,1.58-1.21,5.07,5.07,0,0,1,2.09-.42,5,5,0,0,1,2.8.8,5.54,5.54,0,0,1,1.89,2.17,6.88,6.88,0,0,1,.69,3.12,6.78,6.78,0,0,1-.72,3.18,5.38,5.38,0,0,1-1.94,2.14,5.07,5.07,0,0,1-2.72.76,4.82,4.82,0,0,1-2.1-.45,4.36,4.36,0,0,1-1.58-1.23,4.63,4.63,0,0,1-.9-1.8l.4-.39v8.59Zm5.45-6.12a3.79,3.79,0,0,0,2.12-.6,4.18,4.18,0,0,0,1.46-1.65,5.91,5.91,0,0,0,0-4.85,4.31,4.31,0,0,0-1.46-1.67,4,4,0,0,0-4.23,0,4.17,4.17,0,0,0-1.43,1.67,5.91,5.91,0,0,0,0,4.85,4,4,0,0,0,1.43,1.65A3.75,3.75,0,0,0,109.2,146.5Z" transform="translate(0)"/>
      <path class="cls-3" d="M121.73,147.9a5.45,5.45,0,0,1-2.3-.46,3.41,3.41,0,0,1-1.48-1.26,3.36,3.36,0,0,1-.52-1.88,3.23,3.23,0,0,1,.37-1.62,3,3,0,0,1,1-1.05,4.12,4.12,0,0,1,1.48-.6,9.14,9.14,0,0,1,1.79-.17H126V142h-3.72a7.45,7.45,0,0,0-1.35.12,2.43,2.43,0,0,0-1.12.48,1.69,1.69,0,0,0-.59.68,2.2,2.2,0,0,0-.2,1,2.08,2.08,0,0,0,.78,1.71,3.21,3.21,0,0,0,2.12.64,3.79,3.79,0,0,0,2-.52,4,4,0,0,0,2-3.47l.64.72a5.31,5.31,0,0,1-.76,2.38,4.45,4.45,0,0,1-1.68,1.58A4.75,4.75,0,0,1,121.73,147.9Zm4.17-.17-.09-2.69v-4.68a3,3,0,0,0-3.32-3.31,4.48,4.48,0,0,0-1.94.42,4.76,4.76,0,0,0-1.68,1.43l-1.1-.94a6,6,0,0,1,2.14-1.69,6.45,6.45,0,0,1,2.68-.54,4.77,4.77,0,0,1,3.48,1.19,4.56,4.56,0,0,1,1.22,3.44v7.37Z" transform="translate(0)"/>
      <path class="cls-3" d="M130.87,147.73V135.9h1.54V139l-.39.07a3.8,3.8,0,0,1,.84-1.85,4.64,4.64,0,0,1,1.51-1.14,3.92,3.92,0,0,1,2.63-.28,3.6,3.6,0,0,1,.95.34l-.74,1.37a5.19,5.19,0,0,0-.7-.24,3.25,3.25,0,0,0-.74-.09,3.43,3.43,0,0,0-1.25.24,3.23,3.23,0,0,0-1.14.75,3.08,3.08,0,0,0-.76,1.38,7.1,7.1,0,0,0-.15.89,13.69,13.69,0,0,0-.06,1.46v5.79Z" transform="translate(0)"/>
      <path class="cls-3" d="M151.51,147.9a5.75,5.75,0,0,1-2.34-.46,4.57,4.57,0,0,1-1.69-1.27,5.7,5.7,0,0,1-1-1.92,7.86,7.86,0,0,1-.35-2.35,8,8,0,0,1,.34-2.39,5.89,5.89,0,0,1,1-2,4.67,4.67,0,0,1,1.63-1.33,5,5,0,0,1,2.25-.48,5.15,5.15,0,0,1,2.31.47,4.25,4.25,0,0,1,1.59,1.27,5.56,5.56,0,0,1,.91,1.76,6.5,6.5,0,0,1,.3,2c0,.12,0,.29,0,.5a3.54,3.54,0,0,1-.06.53H147.6a4.65,4.65,0,0,0,1.09,3.17,3.67,3.67,0,0,0,2.82,1.12,4.86,4.86,0,0,0,1.93-.34A4.66,4.66,0,0,0,155,145l1.08,1a6.55,6.55,0,0,1-1.37,1.12,5.28,5.28,0,0,1-1.47.62A6.64,6.64,0,0,1,151.51,147.9Zm3.41-6.46a1.75,1.75,0,0,0,.05-.4v-.39a4.07,4.07,0,0,0-.21-1.27,3.45,3.45,0,0,0-.63-1.18,3.29,3.29,0,0,0-1.13-.86,3.73,3.73,0,0,0-1.66-.34,3.39,3.39,0,0,0-1.93.55,3.72,3.72,0,0,0-1.28,1.47,5.18,5.18,0,0,0-.53,2.06h7.82Z" transform="translate(0)"/>
      <path class="cls-3" d="M158.25,147.73l4.37-5.93-4.37-5.9h1.88l3.5,4.84,3.5-4.84H169l-4.39,5.9,4.39,5.93h-1.87l-3.48-4.87-3.53,4.87Z" transform="translate(0)"/>
      <path class="cls-3" d="M170,137.1v-1.2h7v1.2Zm5.26,10.8a3,3,0,0,1-1.4-.32,2.07,2.07,0,0,1-.92-1,3.71,3.71,0,0,1-.32-1.67V132.51l1.53-.89v13a3,3,0,0,0,.32,1.5,1.23,1.23,0,0,0,1.15.54,3.59,3.59,0,0,0,.62-.06l.72-.15v1.2a5.5,5.5,0,0,1-.87.21A4.76,4.76,0,0,1,175.25,147.9Z" transform="translate(0)"/>
      <path class="cls-3" d="M184.17,147.9a5.75,5.75,0,0,1-2.34-.46,4.57,4.57,0,0,1-1.69-1.27,5.7,5.7,0,0,1-1-1.92,7.86,7.86,0,0,1-.35-2.35,8.37,8.37,0,0,1,.34-2.39,5.91,5.91,0,0,1,1-2,4.58,4.58,0,0,1,1.63-1.33,5,5,0,0,1,2.24-.48,5.19,5.19,0,0,1,2.32.47,4.22,4.22,0,0,1,1.58,1.27,5.56,5.56,0,0,1,.91,1.76,6.5,6.5,0,0,1,.3,2c0,.12,0,.29,0,.5a3.54,3.54,0,0,1-.06.53h-8.76a4.7,4.7,0,0,0,1.09,3.17,3.67,3.67,0,0,0,2.82,1.12,4.92,4.92,0,0,0,1.94-.34,4.63,4.63,0,0,0,1.54-1.17l1.08,1a6.51,6.51,0,0,1-1.36,1.12,5.47,5.47,0,0,1-1.48.62A6.59,6.59,0,0,1,184.17,147.9Zm3.41-6.46a1.75,1.75,0,0,0,0-.4v-.39a4.37,4.37,0,0,0-.2-1.27,3.47,3.47,0,0,0-.64-1.18,3.2,3.2,0,0,0-1.13-.86A3.65,3.65,0,0,0,184,137a3.42,3.42,0,0,0-1.94.55,3.72,3.72,0,0,0-1.28,1.47,5.35,5.35,0,0,0-.53,2.06h7.83Z" transform="translate(0)"/>
      <path class="cls-3" d="M192.24,147.73V135.9h1.53v2.76l-.36.12a4.79,4.79,0,0,1,.89-1.66,4,4,0,0,1,1.38-1,4.34,4.34,0,0,1,1.79-.36,3.93,3.93,0,0,1,3,1.14,4.87,4.87,0,0,1,1.08,3.47v7.39H200v-6.84a4.79,4.79,0,0,0-.73-2.91,2.64,2.64,0,0,0-2.2-.93,3.13,3.13,0,0,0-1.76.49,3.09,3.09,0,0,0-1.17,1.56,7.94,7.94,0,0,0-.41,2.77v5.86Z" transform="translate(0)"/>
      <path class="cls-3" d="M208.92,147.9a6,6,0,0,1-2.13-.36,5.21,5.21,0,0,1-1.63-1,4.87,4.87,0,0,1-1.07-1.35l1.08-.87A3.86,3.86,0,0,0,206.6,146a4.17,4.17,0,0,0,2.32.63,3.35,3.35,0,0,0,2-.56,1.83,1.83,0,0,0,.77-1.55,1.67,1.67,0,0,0-.47-1.26,3.6,3.6,0,0,0-1.2-.71,14.64,14.64,0,0,0-1.6-.45c-.45-.11-.9-.25-1.34-.4a5.2,5.2,0,0,1-1.21-.57,2.64,2.64,0,0,1-.86-.9,3,3,0,0,1,.78-3.63,4.5,4.5,0,0,1,2.85-.86,5.25,5.25,0,0,1,2.41.56,3.9,3.9,0,0,1,1.69,1.72l-1,.72a3.09,3.09,0,0,0-1.34-1.36,4,4,0,0,0-1.83-.42,3.12,3.12,0,0,0-1.79.48,1.5,1.5,0,0,0-.71,1.3,1.41,1.41,0,0,0,.34,1,2.37,2.37,0,0,0,1,.61,9.54,9.54,0,0,0,1.46.43c.52.12,1,.25,1.53.41a7.59,7.59,0,0,1,1.39.61,2.85,2.85,0,0,1,1,1,3,3,0,0,1,.37,1.58,3.4,3.4,0,0,1-.53,1.89,3.37,3.37,0,0,1-1.49,1.23A5.41,5.41,0,0,1,208.92,147.9Z" transform="translate(0)"/>
      <path class="cls-3" d="M216.19,133.59V131H218v2.59Zm.14,14.14V135.9h1.51v11.83Z" transform="translate(0)"/>
      <path class="cls-3" d="M226.65,147.9a5.46,5.46,0,0,1-2.91-.78,5.37,5.37,0,0,1-2-2.16,7.3,7.3,0,0,1,0-6.3,5.3,5.3,0,0,1,2-2.15,5.57,5.57,0,0,1,2.94-.78,5.42,5.42,0,0,1,2.92.78,5.51,5.51,0,0,1,2,2.15,6.53,6.53,0,0,1,.73,3.14,6.64,6.64,0,0,1-.73,3.16,5.37,5.37,0,0,1-4.91,2.94Zm0-1.35a3.78,3.78,0,0,0,3.6-2.27,5.69,5.69,0,0,0,.51-2.48,5.77,5.77,0,0,0-.51-2.51,3.83,3.83,0,0,0-1.42-1.65A4,4,0,0,0,223,139.3a6.22,6.22,0,0,0,0,5,3.88,3.88,0,0,0,1.45,1.67A3.94,3.94,0,0,0,226.65,146.55Z" transform="translate(0)"/>
      <path class="cls-3" d="M235.44,147.73V135.9H237v2.76l-.36.12a4.79,4.79,0,0,1,.89-1.66,3.79,3.79,0,0,1,1.38-1,4.34,4.34,0,0,1,1.79-.36,3.93,3.93,0,0,1,3,1.14,4.87,4.87,0,0,1,1.08,3.47v7.39h-1.51v-6.84a4.72,4.72,0,0,0-.74-2.91,2.6,2.6,0,0,0-2.19-.93,3.18,3.18,0,0,0-1.77.49,3.13,3.13,0,0,0-1.16,1.56,7.94,7.94,0,0,0-.41,2.77v5.86Z" transform="translate(0)"/>
      <path class="cls-3" d="M247.12,151.47l2.57-7.15h1.68l-3.19,7.15Z" transform="translate(0)"/>
      <path class="cls-3" d="M264.24,147.9a4.32,4.32,0,0,1-2.16-.52,3.41,3.41,0,0,1-1.41-1.54,5.91,5.91,0,0,1-.49-2.58V135.9h1.51v6.84a5.71,5.71,0,0,0,.34,2.14,2.58,2.58,0,0,0,1,1.28,3,3,0,0,0,1.63.42,2.94,2.94,0,0,0,2.94-2,7.33,7.33,0,0,0,.4-2.64v-6h1.51v11.83H268V145h.36a3.9,3.9,0,0,1-1.55,2.19A4.47,4.47,0,0,1,264.24,147.9Z" transform="translate(0)"/>
      <path class="cls-3" d="M273.21,147.73V135.9h1.54v2.76l-.36.12a4.63,4.63,0,0,1,.89-1.66,3.79,3.79,0,0,1,1.38-1,4.29,4.29,0,0,1,1.78-.36,3.93,3.93,0,0,1,3,1.14,4.87,4.87,0,0,1,1.08,3.47v7.39H281v-6.84a4.72,4.72,0,0,0-.73-2.91,2.63,2.63,0,0,0-2.2-.93,2.91,2.91,0,0,0-2.92,2,7.71,7.71,0,0,0-.41,2.77v5.86Z" transform="translate(0)"/>
      <path class="cls-3" d="M292.34,147.73V135.9h1.54V139l-.39.07a3.8,3.8,0,0,1,.84-1.85,4.64,4.64,0,0,1,1.51-1.14,3.92,3.92,0,0,1,2.63-.28,3.6,3.6,0,0,1,.95.34l-.74,1.37a5.19,5.19,0,0,0-.7-.24,3.25,3.25,0,0,0-.74-.09,3.43,3.43,0,0,0-1.25.24,3.23,3.23,0,0,0-1.14.75,3.08,3.08,0,0,0-.76,1.38,7.1,7.1,0,0,0-.15.89,13.69,13.69,0,0,0-.06,1.46v5.79Z" transform="translate(0)"/>
      <path class="cls-3" d="M305.88,147.9a5.75,5.75,0,0,1-2.34-.46,4.61,4.61,0,0,1-1.7-1.27,6.08,6.08,0,0,1-1-1.92,7.86,7.86,0,0,1-.34-2.35,8.37,8.37,0,0,1,.33-2.39,6.1,6.1,0,0,1,1-2,4.58,4.58,0,0,1,1.63-1.33,5,5,0,0,1,2.24-.48,5.19,5.19,0,0,1,2.32.47,4.14,4.14,0,0,1,1.58,1.27,5.8,5.8,0,0,1,.92,1.76,6.5,6.5,0,0,1,.3,2c0,.12,0,.29,0,.5a2,2,0,0,1-.06.53H302a4.7,4.7,0,0,0,1.1,3.17,3.64,3.64,0,0,0,2.82,1.12,4.9,4.9,0,0,0,1.93-.34,4.77,4.77,0,0,0,1.55-1.17l1.08,1a6.82,6.82,0,0,1-1.37,1.12,5.47,5.47,0,0,1-1.48.62A6.57,6.57,0,0,1,305.88,147.9Zm3.4-6.46a1.33,1.33,0,0,0,.05-.4v-.39a4.37,4.37,0,0,0-.2-1.27,3.47,3.47,0,0,0-.64-1.18,3.2,3.2,0,0,0-1.13-.86,3.65,3.65,0,0,0-1.65-.34,3.36,3.36,0,0,0-1.93.55,3.67,3.67,0,0,0-1.29,1.47,5.35,5.35,0,0,0-.53,2.06h7.83Zm-4.17-7.08,2.57-3.36h1.63l-3.05,3.36Z" transform="translate(0)"/>
      <path class="cls-3" d="M317.59,147.9a6,6,0,0,1-2.13-.36,5.21,5.21,0,0,1-1.63-1,4.87,4.87,0,0,1-1.07-1.35l1.08-.87a3.86,3.86,0,0,0,1.43,1.65,4.17,4.17,0,0,0,2.32.63,3.35,3.35,0,0,0,2-.56,1.83,1.83,0,0,0,.77-1.55,1.67,1.67,0,0,0-.47-1.26,3.6,3.6,0,0,0-1.2-.71,14.64,14.64,0,0,0-1.6-.45c-.45-.11-.9-.25-1.34-.4a5.2,5.2,0,0,1-1.21-.57,2.64,2.64,0,0,1-.86-.9,3,3,0,0,1,.78-3.63,4.5,4.5,0,0,1,2.85-.86,5.25,5.25,0,0,1,2.41.56,3.9,3.9,0,0,1,1.69,1.72l-1,.72a3.09,3.09,0,0,0-1.34-1.36,4,4,0,0,0-1.83-.42,3.12,3.12,0,0,0-1.79.48,1.5,1.5,0,0,0-.71,1.3,1.41,1.41,0,0,0,.34,1,2.37,2.37,0,0,0,1,.61,9.54,9.54,0,0,0,1.46.43c.52.12,1,.25,1.53.41a7.59,7.59,0,0,1,1.39.61,2.85,2.85,0,0,1,1,1,3,3,0,0,1,.37,1.58,3.4,3.4,0,0,1-.53,1.89,3.37,3.37,0,0,1-1.49,1.23A5.41,5.41,0,0,1,317.59,147.9Z" transform="translate(0)"/>
      <path class="cls-3" d="M329.73,147.9a5.75,5.75,0,0,1-2.34-.46,4.57,4.57,0,0,1-1.69-1.27,5.7,5.7,0,0,1-1-1.92,7.86,7.86,0,0,1-.35-2.35,8,8,0,0,1,.34-2.39,5.89,5.89,0,0,1,1-2,4.67,4.67,0,0,1,1.63-1.33,5,5,0,0,1,2.25-.48,5.15,5.15,0,0,1,2.31.47,4.25,4.25,0,0,1,1.59,1.27,5.56,5.56,0,0,1,.91,1.76,6.5,6.5,0,0,1,.3,2c0,.12,0,.29,0,.5a3.54,3.54,0,0,1-.06.53h-8.76a4.65,4.65,0,0,0,1.09,3.17,3.67,3.67,0,0,0,2.82,1.12,4.86,4.86,0,0,0,1.93-.34,4.66,4.66,0,0,0,1.55-1.17l1.08,1a6.55,6.55,0,0,1-1.37,1.12,5.28,5.28,0,0,1-1.47.62A6.64,6.64,0,0,1,329.73,147.9Zm3.41-6.46a1.75,1.75,0,0,0,.05-.4v-.39a4.07,4.07,0,0,0-.21-1.27,3.45,3.45,0,0,0-.63-1.18,3.29,3.29,0,0,0-1.13-.86,3.73,3.73,0,0,0-1.66-.34,3.39,3.39,0,0,0-1.93.55,3.72,3.72,0,0,0-1.28,1.47,5.18,5.18,0,0,0-.53,2.06h7.82Z" transform="translate(0)"/>
      <path class="cls-3" d="M341.32,147.9a5.41,5.41,0,0,1-2.29-.46,3.28,3.28,0,0,1-2-3.14,3.23,3.23,0,0,1,.37-1.62,3,3,0,0,1,1-1.05,4,4,0,0,1,1.48-.6,9,9,0,0,1,1.78-.17h3.92V142h-3.72a7.56,7.56,0,0,0-1.36.12,2.53,2.53,0,0,0-1.12.48,1.67,1.67,0,0,0-.58.68,2.2,2.2,0,0,0-.21,1,2.08,2.08,0,0,0,.78,1.71,3.24,3.24,0,0,0,2.13.64,3.76,3.76,0,0,0,2-.52,3.85,3.85,0,0,0,1.43-1.43,3.89,3.89,0,0,0,.54-2l.65.72a5.32,5.32,0,0,1-.77,2.38,4.31,4.31,0,0,1-1.68,1.58A4.75,4.75,0,0,1,341.32,147.9Zm4.18-.17-.1-2.69v-4.68a3,3,0,0,0-3.31-3.31,4.48,4.48,0,0,0-1.94.42,4.6,4.6,0,0,0-1.68,1.43l-1.11-.94a6.08,6.08,0,0,1,2.15-1.69,6.38,6.38,0,0,1,2.68-.54,4.77,4.77,0,0,1,3.48,1.19,4.6,4.6,0,0,1,1.22,3.44v7.37Z" transform="translate(0)"/>
      <path class="cls-3" d="M354.21,147.9a4.37,4.37,0,0,1-2.16-.52,3.34,3.34,0,0,1-1.4-1.54,5.9,5.9,0,0,1-.5-2.58V135.9h1.52v6.84a5.94,5.94,0,0,0,.33,2.14,2.6,2.6,0,0,0,1,1.28,2.92,2.92,0,0,0,1.63.42,3.12,3.12,0,0,0,1.8-.51,3.21,3.21,0,0,0,1.14-1.53,7.58,7.58,0,0,0,.39-2.64v-6h1.52v11.83H358V145h.36a3.93,3.93,0,0,1-1.54,2.19A4.48,4.48,0,0,1,354.21,147.9Z" transform="translate(0)"/>
      <path class="cls-3" d="M81.7,175.9a4.92,4.92,0,0,1-2.8-.81,5.46,5.46,0,0,1-1.9-2.18,7,7,0,0,1-.68-3.11,6.73,6.73,0,0,1,.72-3.19A5.48,5.48,0,0,1,79,164.48a5.11,5.11,0,0,1,2.72-.75,4.58,4.58,0,0,1,2.11.47,4.68,4.68,0,0,1,1.58,1.28,4.61,4.61,0,0,1,.89,1.85l-.41.26V159h1.51v16.73H85.87V172l.48.17a5.78,5.78,0,0,1-1,1.94,4.53,4.53,0,0,1-1.58,1.31A4.71,4.71,0,0,1,81.7,175.9Zm.24-1.4a3.68,3.68,0,0,0,2.11-.61,4.18,4.18,0,0,0,1.43-1.67,6,6,0,0,0,0-4.84,4.08,4.08,0,0,0-1.43-1.66,3.75,3.75,0,0,0-2.11-.6,3.86,3.86,0,0,0-2.12.6,4.07,4.07,0,0,0-1.46,1.66,5.79,5.79,0,0,0,0,4.84,4.17,4.17,0,0,0,1.46,1.67A3.78,3.78,0,0,0,81.94,174.5Z" transform="translate(0)"/>
      <path class="cls-3" d="M90.17,165.82,92.66,159h1.76l-3.2,6.82Z" transform="translate(0)"/>
      <path class="cls-3" d="M97,161.59V159h1.8v2.59Zm.15,14.14V163.9h1.51v11.83Z" transform="translate(0)"/>
      <path class="cls-3" d="M107.18,175.9a4.91,4.91,0,0,1-2.79-.81,5.46,5.46,0,0,1-1.9-2.18,7,7,0,0,1-.68-3.11,6.73,6.73,0,0,1,.72-3.19,5.48,5.48,0,0,1,1.94-2.13,5.1,5.1,0,0,1,2.71-.75,4.59,4.59,0,0,1,2.12.47,4.68,4.68,0,0,1,1.58,1.28,4.61,4.61,0,0,1,.89,1.85l-.41.26V159h1.51v16.73h-1.51V172l.48.17a5.78,5.78,0,0,1-1,1.94,4.53,4.53,0,0,1-1.58,1.31A4.72,4.72,0,0,1,107.18,175.9Zm.24-1.4a3.71,3.71,0,0,0,2.12-.61,4.15,4.15,0,0,0,1.42-1.67,5.89,5.89,0,0,0,0-4.84,4.06,4.06,0,0,0-1.42-1.66,3.79,3.79,0,0,0-2.12-.6,3.85,3.85,0,0,0-2.11.6,4.07,4.07,0,0,0-1.46,1.66,5.79,5.79,0,0,0,0,4.84,4.17,4.17,0,0,0,1.46,1.67A3.77,3.77,0,0,0,107.42,174.5Z" transform="translate(0)"/>
      <path class="cls-3" d="M121.46,175.9a5.75,5.75,0,0,1-2.34-.46,4.57,4.57,0,0,1-1.69-1.27,5.7,5.7,0,0,1-1-1.92,7.86,7.86,0,0,1-.35-2.35,8.37,8.37,0,0,1,.34-2.39,5.91,5.91,0,0,1,1-2,4.58,4.58,0,0,1,1.63-1.33,5,5,0,0,1,2.24-.48,5.19,5.19,0,0,1,2.32.47,4.22,4.22,0,0,1,1.58,1.27,5.56,5.56,0,0,1,.91,1.76,6.5,6.5,0,0,1,.3,2c0,.12,0,.29,0,.5a3.54,3.54,0,0,1-.06.53h-8.76a4.7,4.7,0,0,0,1.09,3.17,3.67,3.67,0,0,0,2.82,1.12,4.92,4.92,0,0,0,1.94-.34,4.63,4.63,0,0,0,1.54-1.17l1.08,1a6.51,6.51,0,0,1-1.36,1.12,5.47,5.47,0,0,1-1.48.62A6.59,6.59,0,0,1,121.46,175.9Zm3.41-6.46a1.75,1.75,0,0,0,0-.4v-.39a4.37,4.37,0,0,0-.2-1.27,3.47,3.47,0,0,0-.64-1.18,3.2,3.2,0,0,0-1.13-.86,3.65,3.65,0,0,0-1.65-.34,3.42,3.42,0,0,0-1.94.55,3.72,3.72,0,0,0-1.28,1.47,5.35,5.35,0,0,0-.53,2.06h7.83Zm-4.17-7.08,2.56-3.36h1.64l-3.05,3.36Z" transform="translate(0)"/>
      <path class="cls-3" d="M134.33,175.9a5.75,5.75,0,0,1-2.34-.46,4.49,4.49,0,0,1-1.69-1.27,5.7,5.7,0,0,1-1-1.92,7.55,7.55,0,0,1-.35-2.35,8.37,8.37,0,0,1,.33-2.39,6.1,6.1,0,0,1,1-2,4.58,4.58,0,0,1,1.63-1.33,5,5,0,0,1,2.25-.48,5.18,5.18,0,0,1,2.31.47,4.25,4.25,0,0,1,1.59,1.27,5.78,5.78,0,0,1,.91,1.76,6.5,6.5,0,0,1,.3,2c0,.12,0,.29,0,.5a3.54,3.54,0,0,1-.06.53h-8.76a4.65,4.65,0,0,0,1.09,3.17,3.64,3.64,0,0,0,2.82,1.12,4.9,4.9,0,0,0,1.93-.34,4.66,4.66,0,0,0,1.55-1.17l1.08,1a6.82,6.82,0,0,1-1.37,1.12,5.34,5.34,0,0,1-1.48.62A6.57,6.57,0,0,1,134.33,175.9Zm3.41-6.46a1.75,1.75,0,0,0,0-.4v-.39a4.05,4.05,0,0,0-.2-1.27,3.47,3.47,0,0,0-.64-1.18,3.16,3.16,0,0,0-1.12-.86,3.73,3.73,0,0,0-1.66-.34,3.36,3.36,0,0,0-1.93.55,3.83,3.83,0,0,0-1.29,1.47,5.17,5.17,0,0,0-.52,2.06h7.82Z" transform="translate(0)"/>
      <path class="cls-3" d="M146,175.9a5.89,5.89,0,0,1-2.12-.36,5.15,5.15,0,0,1-1.64-1,4.87,4.87,0,0,1-1.07-1.35l1.08-.87a3.86,3.86,0,0,0,1.43,1.65,4.17,4.17,0,0,0,2.32.63,3.33,3.33,0,0,0,2-.56,1.83,1.83,0,0,0,.77-1.55,1.67,1.67,0,0,0-.47-1.26,3.5,3.5,0,0,0-1.2-.71,14.64,14.64,0,0,0-1.6-.45c-.45-.11-.89-.25-1.34-.4a5.4,5.4,0,0,1-1.21-.57,2.74,2.74,0,0,1-.86-.9,2.86,2.86,0,0,1-.31-1.37,2.75,2.75,0,0,1,1.1-2.26,4.45,4.45,0,0,1,2.84-.86,5.25,5.25,0,0,1,2.41.56A3.9,3.9,0,0,1,149.9,166l-1,.72a3.12,3.12,0,0,0-1.33-1.36,4,4,0,0,0-1.84-.42,3.12,3.12,0,0,0-1.79.48,1.5,1.5,0,0,0-.71,1.3,1.41,1.41,0,0,0,.34,1,2.37,2.37,0,0,0,1,.61,9.69,9.69,0,0,0,1.47.43c.51.12,1,.25,1.52.41a7.3,7.3,0,0,1,1.39.61,2.85,2.85,0,0,1,1,1,3,3,0,0,1,.37,1.58,3.4,3.4,0,0,1-.53,1.89,3.37,3.37,0,0,1-1.49,1.23A5.41,5.41,0,0,1,146,175.9Z" transform="translate(0)"/>
      <path class="cls-3" d="M164.57,175.9a5.75,5.75,0,0,1-2.34-.46,4.61,4.61,0,0,1-1.7-1.27,6.08,6.08,0,0,1-1-1.92,7.86,7.86,0,0,1-.34-2.35,8.37,8.37,0,0,1,.33-2.39,6.1,6.1,0,0,1,1-2,4.58,4.58,0,0,1,1.63-1.33,5,5,0,0,1,2.24-.48,5.19,5.19,0,0,1,2.32.47,4.14,4.14,0,0,1,1.58,1.27,5.59,5.59,0,0,1,.92,1.76,6.5,6.5,0,0,1,.3,2c0,.12,0,.29,0,.5a2,2,0,0,1-.06.53h-8.76a4.7,4.7,0,0,0,1.1,3.17,3.64,3.64,0,0,0,2.82,1.12,4.9,4.9,0,0,0,1.93-.34,4.77,4.77,0,0,0,1.55-1.17l1.08,1a6.82,6.82,0,0,1-1.37,1.12,5.47,5.47,0,0,1-1.48.62A6.57,6.57,0,0,1,164.57,175.9Zm3.4-6.46a1.33,1.33,0,0,0,.05-.4v-.39a4.37,4.37,0,0,0-.2-1.27,3.47,3.47,0,0,0-.64-1.18,3.2,3.2,0,0,0-1.13-.86,3.65,3.65,0,0,0-1.65-.34,3.36,3.36,0,0,0-1.93.55,3.75,3.75,0,0,0-1.29,1.47,5.35,5.35,0,0,0-.53,2.06h7.83Z" transform="translate(0)"/>
      <path class="cls-3" d="M172.63,175.73V163.9h1.54v2.76l-.36.12a4.61,4.61,0,0,1,.88-1.66,4,4,0,0,1,1.38-1,4.37,4.37,0,0,1,1.79-.36,3.93,3.93,0,0,1,3,1.14,4.87,4.87,0,0,1,1.08,3.47v7.39h-1.51v-6.84a4.72,4.72,0,0,0-.73-2.91,2.63,2.63,0,0,0-2.2-.93,2.93,2.93,0,0,0-2.93,2,8,8,0,0,0-.4,2.77v5.86Z" transform="translate(0)"/>
      <path class="cls-3" d="M183.69,165.1v-1.2h7v1.2ZM189,175.9a2.94,2.94,0,0,1-1.39-.32,2.09,2.09,0,0,1-.93-1,3.85,3.85,0,0,1-.32-1.67V160.51l1.54-.89v13a2.88,2.88,0,0,0,.32,1.5,1.23,1.23,0,0,0,1.14.54,3.5,3.5,0,0,0,.62-.06l.72-.15v1.2a5.14,5.14,0,0,1-.86.21A5,5,0,0,1,189,175.9Z" transform="translate(0)"/>
      <path class="cls-3" d="M193.32,175.73V163.9h1.53V167l-.38.07a3.8,3.8,0,0,1,.84-1.85,4.64,4.64,0,0,1,1.51-1.14,3.92,3.92,0,0,1,2.63-.28,3.73,3.73,0,0,1,1,.34l-.75,1.37a5,5,0,0,0-.69-.24,3.33,3.33,0,0,0-.75-.09,3.41,3.41,0,0,0-1.24.24,3.23,3.23,0,0,0-1.14.75,3.08,3.08,0,0,0-.76,1.38,6.92,6.92,0,0,0-.16.89,13.69,13.69,0,0,0-.06,1.46v5.79Z" transform="translate(0)"/>
      <path class="cls-3" d="M206.85,175.9a5.75,5.75,0,0,1-2.34-.46,4.57,4.57,0,0,1-1.69-1.27,5.7,5.7,0,0,1-1-1.92,7.86,7.86,0,0,1-.35-2.35,8.37,8.37,0,0,1,.34-2.39,5.91,5.91,0,0,1,1-2,4.58,4.58,0,0,1,1.63-1.33,5,5,0,0,1,2.24-.48,5.19,5.19,0,0,1,2.32.47,4.22,4.22,0,0,1,1.58,1.27,5.56,5.56,0,0,1,.91,1.76,6.5,6.5,0,0,1,.3,2c0,.12,0,.29,0,.5a3.54,3.54,0,0,1-.06.53h-8.76a4.7,4.7,0,0,0,1.09,3.17,3.67,3.67,0,0,0,2.82,1.12,4.92,4.92,0,0,0,1.94-.34,4.63,4.63,0,0,0,1.54-1.17l1.08,1a6.51,6.51,0,0,1-1.36,1.12,5.47,5.47,0,0,1-1.48.62A6.59,6.59,0,0,1,206.85,175.9Zm3.41-6.46a1.75,1.75,0,0,0,.05-.4v-.39a4.37,4.37,0,0,0-.2-1.27,3.47,3.47,0,0,0-.64-1.18,3.2,3.2,0,0,0-1.13-.86,3.65,3.65,0,0,0-1.65-.34,3.42,3.42,0,0,0-1.94.55,3.72,3.72,0,0,0-1.28,1.47,5.35,5.35,0,0,0-.53,2.06h7.83Z" transform="translate(0)"/>
      <path class="cls-3" d="M214.92,175.73V163.9h1.53v3h-.31a5.62,5.62,0,0,1,.58-1.44,3.62,3.62,0,0,1,.86-1,3.51,3.51,0,0,1,1.09-.59,4,4,0,0,1,1.24-.19,4.24,4.24,0,0,1,1.86.39,3.19,3.19,0,0,1,1.31,1.22,5.47,5.47,0,0,1,.69,2.08l-.84.05a7.48,7.48,0,0,1,.88-2.05,3.64,3.64,0,0,1,1.36-1.26,4,4,0,0,1,1.92-.43,3.44,3.44,0,0,1,3.55,2.42,7.85,7.85,0,0,1,.38,2.52v7.06h-1.51V169a7.65,7.65,0,0,0-.26-2.11,2.67,2.67,0,0,0-.87-1.37,2.53,2.53,0,0,0-1.63-.48,2.65,2.65,0,0,0-1.57.47,2.92,2.92,0,0,0-1.06,1.42,6.65,6.65,0,0,0-.37,2.4v6.39h-1.54v-6.94a4.73,4.73,0,0,0-.68-2.82,2.38,2.38,0,0,0-2-.92,2.71,2.71,0,0,0-1.58.48,3,3,0,0,0-1.08,1.46,6.87,6.87,0,0,0-.39,2.5v6.24Z" transform="translate(0)"/>
      <path class="cls-3" d="M239.35,175.9a5.75,5.75,0,0,1-2.34-.46,4.57,4.57,0,0,1-1.69-1.27,5.7,5.7,0,0,1-1-1.92,7.86,7.86,0,0,1-.35-2.35,8,8,0,0,1,.34-2.39,5.89,5.89,0,0,1,1-2,4.67,4.67,0,0,1,1.63-1.33,5,5,0,0,1,2.25-.48,5.15,5.15,0,0,1,2.31.47,4.25,4.25,0,0,1,1.59,1.27,5.56,5.56,0,0,1,.91,1.76,6.5,6.5,0,0,1,.3,2c0,.12,0,.29,0,.5a3.54,3.54,0,0,1-.06.53h-8.76a4.65,4.65,0,0,0,1.09,3.17,3.67,3.67,0,0,0,2.82,1.12,4.86,4.86,0,0,0,1.93-.34,4.66,4.66,0,0,0,1.55-1.17l1.08,1a6.55,6.55,0,0,1-1.37,1.12,5.41,5.41,0,0,1-1.47.62A6.64,6.64,0,0,1,239.35,175.9Zm3.41-6.46a1.75,1.75,0,0,0,.05-.4v-.39a4.07,4.07,0,0,0-.21-1.27,3.45,3.45,0,0,0-.63-1.18,3.29,3.29,0,0,0-1.13-.86,3.73,3.73,0,0,0-1.66-.34,3.39,3.39,0,0,0-1.93.55A3.72,3.72,0,0,0,236,167a5.18,5.18,0,0,0-.53,2.06h7.82Zm-7.15-6.91,3.55-3.75,3.55,3.75h-1.27l-2.28-2.4-2.28,2.4Z" transform="translate(0)"/>
      <path class="cls-3" d="M249.6,175.9a2.12,2.12,0,0,1-1.61-.64,2.88,2.88,0,0,1-.6-2V159h1.51v14a1.76,1.76,0,0,0,.31,1.17,1.06,1.06,0,0,0,.84.36,2.61,2.61,0,0,0,.53-.06l.6-.15v1.29a4.87,4.87,0,0,1-.83.23A3.62,3.62,0,0,1,249.6,175.9Z" transform="translate(0)"/>
      <path class="cls-3" d="M258.48,175.9a5.75,5.75,0,0,1-2.34-.46,4.49,4.49,0,0,1-1.69-1.27,5.91,5.91,0,0,1-1-1.92,7.86,7.86,0,0,1-.34-2.35,8.37,8.37,0,0,1,.33-2.39,6.1,6.1,0,0,1,1-2,4.58,4.58,0,0,1,1.63-1.33,5,5,0,0,1,2.25-.48,5.18,5.18,0,0,1,2.31.47,4.25,4.25,0,0,1,1.59,1.27,5.78,5.78,0,0,1,.91,1.76,6.5,6.5,0,0,1,.3,2c0,.12,0,.29,0,.5a2.65,2.65,0,0,1-.05.53h-8.76a4.65,4.65,0,0,0,1.09,3.17,3.64,3.64,0,0,0,2.82,1.12,4.9,4.9,0,0,0,1.93-.34A4.66,4.66,0,0,0,262,173l1.08,1a6.82,6.82,0,0,1-1.37,1.12,5.34,5.34,0,0,1-1.48.62A6.57,6.57,0,0,1,258.48,175.9Zm3.4-6.46a1.33,1.33,0,0,0,.05-.4v-.39a4.05,4.05,0,0,0-.2-1.27,3.47,3.47,0,0,0-.64-1.18,3.2,3.2,0,0,0-1.13-.86,3.65,3.65,0,0,0-1.65-.34,3.36,3.36,0,0,0-1.93.55,3.83,3.83,0,0,0-1.29,1.47,5.17,5.17,0,0,0-.52,2.06h7.82Zm-4.17-7.08,2.57-3.36h1.63l-3.05,3.36Z" transform="translate(0)"/>
      <path class="cls-3" d="M271.34,175.9a5.75,5.75,0,0,1-2.34-.46,4.57,4.57,0,0,1-1.69-1.27,5.7,5.7,0,0,1-1-1.92,7.86,7.86,0,0,1-.35-2.35,8,8,0,0,1,.34-2.39,5.89,5.89,0,0,1,1-2,4.61,4.61,0,0,1,1.64-1.33,5,5,0,0,1,2.24-.48,5.15,5.15,0,0,1,2.31.47,4.25,4.25,0,0,1,1.59,1.27,5.56,5.56,0,0,1,.91,1.76,6.5,6.5,0,0,1,.3,2c0,.12,0,.29,0,.5a3.54,3.54,0,0,1-.06.53h-8.76a4.7,4.7,0,0,0,1.09,3.17,3.67,3.67,0,0,0,2.82,1.12,4.86,4.86,0,0,0,1.93-.34,4.57,4.57,0,0,0,1.55-1.17l1.08,1a6.55,6.55,0,0,1-1.37,1.12,5.28,5.28,0,0,1-1.47.62A6.64,6.64,0,0,1,271.34,175.9Zm3.41-6.46a1.75,1.75,0,0,0,.05-.4v-.39a4.07,4.07,0,0,0-.21-1.27,3.23,3.23,0,0,0-1.76-2,3.73,3.73,0,0,0-1.66-.34,3.39,3.39,0,0,0-1.93.55A3.72,3.72,0,0,0,268,167a5.18,5.18,0,0,0-.53,2.06h7.82Z" transform="translate(0)"/>
      <path class="cls-3" d="M283.05,175.9a5.93,5.93,0,0,1-2.12-.36,5.1,5.1,0,0,1-1.63-1,4.52,4.52,0,0,1-1.07-1.35l1.08-.87a3.79,3.79,0,0,0,1.43,1.65,4.14,4.14,0,0,0,2.31.63,3.33,3.33,0,0,0,2-.56,1.83,1.83,0,0,0,.77-1.55,1.67,1.67,0,0,0-.47-1.26,3.5,3.5,0,0,0-1.2-.71,15.1,15.1,0,0,0-1.59-.45c-.45-.11-.9-.25-1.35-.4a5.4,5.4,0,0,1-1.21-.57,2.7,2.7,0,0,1-.85-.9,3,3,0,0,1,.78-3.63,4.47,4.47,0,0,1,2.84-.86,5.22,5.22,0,0,1,2.41.56,3.93,3.93,0,0,1,1.7,1.72l-1,.72a3.07,3.07,0,0,0-1.33-1.36,4,4,0,0,0-1.84-.42,3.09,3.09,0,0,0-1.78.48,1.48,1.48,0,0,0-.71,1.3,1.41,1.41,0,0,0,.33,1,2.52,2.52,0,0,0,1,.61,10,10,0,0,0,1.47.43c.51.12,1,.25,1.52.41a7,7,0,0,1,1.39.61,2.77,2.77,0,0,1,1,1,3,3,0,0,1,.37,1.58,3.23,3.23,0,0,1-2,3.12A5.42,5.42,0,0,1,283.05,175.9Z" transform="translate(0)"/>
      <path class="cls-3" d="M290.59,175.73v-2.59h1.82v2.59Z" transform="translate(0)"/>
    </g>
  </g>
  <g id="dedales">
    <g id="Correspondances">
      <rect class="cls-3" x="1000" y="675" width="25" height="25"/>
      <rect class="cls-4" x="1000" y="650" width="25" height="25"/>
      <rect class="cls-4" x="1025" y="625" width="25" height="25"/>
      <rect class="cls-4" x="1050" y="625" width="25" height="25"/>
      <rect class="cls-4" x="1050" y="600" width="25" height="25"/>
      <rect class="cls-4" x="1075" y="576" width="25" height="25"/>
    </g>
    <g id="Textes">
      <rect class="cls-3" x="1025" y="300" width="25" height="25"/>
    </g>
    <g id="Blog">
      <rect class="cls-3" x="1325" y="300" width="25" height="25"/>
      <rect class="cls-4" x="1350" y="325" width="25" height="25"/>
      <rect class="cls-4" x="1350" y="350" width="25" height="25"/>
      <rect class="cls-4" x="1350" y="375" width="25" height="25"/>
      <rect class="cls-4" x="1375" y="375" width="25" height="25"/>
    </g>
  </g>
</svg>
