<svg id="Calque_1" data-name="Calque 1" xmlns="http://www.w3.org/2000/svg" viewBox="0 0 208.61 209.54"><defs><style>.cls-1{fill:red;stroke:#697565;stroke-miterlimit:10;stroke-width:10px;}</style></defs><path class="cls-1" d="M10.73,110q0-48.9,0-97.8c0-1.62.45-1.94,2-1.94q41.63.07,83.25,0c1.62,0,1.94.46,1.93,2q-.12,14,0,28c0,1.6-.68,1.54-1.82,1.58s-1.77-.15-1.75-1.64c.08-8.22,0-16.45.06-24.67,0-1.25-.15-1.76-1.63-1.76q-38.48.09-77,0c-1.38,0-1.56.41-1.56,1.65q0,52.58,0,105.14c0,1.53.44,1.76,1.82,1.75,8-.07,16,0,24-.06,1.36,0,2.1,0,2.15,1.82,0,2.07-1.07,1.71-2.24,1.71-8.07,0-16.13,0-24.2,0-1.16,0-1.57.19-1.56,1.48.07,7.23.06,14.46,0,21.69,0,1,.16,1.38,1.3,1.38q24.82-.06,49.63,0c1,0,1.38-.17,1.37-1.3q-.06-24.93,0-49.87c0-1.25-.47-1.36-1.49-1.36-8.3,0-16.6,0-24.91,0-1.18,0-1.54-.23-1.53-1.49q.06-28.26,0-56.51c0-1.2.24-1.55,1.49-1.55,9.46.06,18.93.09,28.39,0,1.68,0,1.51.77,1.52,1.87s0,1.74-1.49,1.72c-8.3-.1-16.61,0-24.91-.07-1.21,0-1.52.27-1.52,1.51q.08,24.75,0,49.51c0,1.22.28,1.53,1.51,1.53,8.3-.07,16.6,0,24.9-.07,1.22,0,1.53.29,1.52,1.52-.06,8.34,0,16.68-.07,25,0,1.24.31,1.52,1.52,1.52q38.58-.06,77.15,0c1.23,0,1.52-.31,1.51-1.53q-.09-10.75,0-21.52c0-1.24-.32-1.51-1.53-1.51-17.47,0-34.94,0-52.41.07-1.56,0-1.87-.39-1.86-1.89.08-8.22,0-16.45.07-24.67,0-1.26-.34-1.51-1.53-1.5-8.3.06-16.61,0-24.91.08-1.76,0-1.4-.9-1.48-1.91-.09-1.18.09-1.7,1.53-1.68q14.19.12,28.39,0c1.26,0,1.49.37,1.48,1.55,0,8.28,0,16.56-.07,24.84,0,1.44.45,1.66,1.73,1.66q40.05,0,80.11,0c.58,0,1.52-.4,1.71.3a6.35,6.35,0,0,1,0,2.94c-.11.51-.93.23-1.43.23-8.07,0-16.14.08-24.2,0-1.89,0-2.2.55-2.18,2.29.1,8,0,16,.09,24,0,1.65-.51,1.84-1.93,1.83-8.07-.07-16.14,0-24.2-.07-1.39,0-1.84.23-1.83,1.75.09,8.22,0,16.45.09,24.67,0,1.48-.51,1.68-1.76,1.64s-1.83,0-1.81-1.58c.1-8.28,0-16.56.07-24.84,0-1.26-.22-1.64-1.57-1.64q-24.56.09-49.11,0c-1.26,0-1.64.23-1.63,1.58.07,8.22,0,16.45.07,24.67,0,1.42-.28,1.81-1.76,1.81-17.42-.06-34.83,0-52.25-.08-1.42,0-1.8.3-1.79,1.78q.09,24.5,0,49c0,1.44.3,1.81,1.77,1.81q24.38-.11,48.76,0c1.44,0,1.81-.31,1.79-1.78-.08-7.11-.06-14.23,0-21.34,0-1.14-.28-1.44-1.42-1.43-8.3,0-16.6,0-24.9.07-1.53,0-1.61-.6-1.6-1.79s0-1.82,1.6-1.8c9.4.09,18.81.07,28.21,0,1.31,0,1.61.31,1.6,1.61-.07,8.29,0,16.57-.07,24.85,0,1.32.33,1.61,1.61,1.6,8.25-.06,16.49,0,24.73-.08,1.57,0,1.58.65,1.59,1.81s-.1,1.78-1.61,1.78q-41.9-.09-83.77,0c-1.48,0-1.76-.38-1.76-1.8Q10.76,159,10.73,110Z" transform="translate(-5.69 -5.23)"/><path class="cls-1" d="M209.27,110.16q0,48.81,0,97.62c0,1.53-.3,2-1.93,2q-41.7-.09-83.41,0c-1.4,0-1.82-.26-1.81-1.76.09-8.22,0-16.45.07-24.67,0-1.26-.22-1.65-1.57-1.63-8.25.07-16.49,0-24.73.06-1.26,0-1.64-.23-1.63-1.58.07-9.51.09-19,0-28.52,0-1.6.76-1.45,1.77-1.43s1.83-.26,1.81,1.4c-.1,8.33,0,16.67-.08,25,0,1.28.25,1.64,1.59,1.63,8.24-.07,16.48,0,24.72-.07,1.28,0,1.63.26,1.62,1.6-.07,8.28,0,16.56-.07,24.84,0,1.28.27,1.64,1.59,1.62q10.63-.1,21.25,0c1.28,0,1.62-.28,1.61-1.6-.05-17.55,0-35.11-.07-52.66,0-1.43.31-1.81,1.77-1.8q14,.12,28,0c1.28,0,1.62.28,1.61,1.6q-.1,14.17,0,28.34c0,1.54-.59,1.62-1.78,1.61s-1.81,0-1.79-1.6c.09-8.28,0-16.56.08-24.84,0-1.31-.3-1.63-1.61-1.62-7.14.08-14.28.07-21.41,0-1.14,0-1.43.29-1.43,1.43q.06,24.84,0,49.69c0,1.14.29,1.43,1.43,1.42q24.72,0,49.45,0c1.13,0,1.42-.28,1.42-1.42q0-38.85,0-77.68c0-1.13-.27-1.44-1.41-1.43-8.3,0-16.61,0-24.91.07-1.53,0-1.6-.6-1.6-1.79s.06-1.82,1.6-1.8c8.24.1,16.49,0,24.73.08,1.31,0,1.6-.31,1.6-1.61q-.07-24.67,0-49.34c0-1.3-.31-1.61-1.6-1.6-26.7,0-53.4,0-80.1.07-1.57,0-2-.37-2-2,.09-9.33.07-18.66,0-28,0-1.31.29-1.62,1.6-1.62q28,.08,56.07,0c1.54,0,1.61.6,1.61,1.79s-.06,1.81-1.6,1.8c-17.48-.07-35,0-52.42-.08-1.44,0-1.8.33-1.78,1.79.08,7.11.06,14.22,0,21.34,0,1.14.29,1.43,1.42,1.43q38.66-.06,77.32,0c1.13,0,1.43-.28,1.42-1.43q-.06-24.84,0-49.68c0-1.37-.52-1.43-1.6-1.43q-40,0-80.1,0c-.61,0-1.6.33-1.78-.21a9.14,9.14,0,0,1-.12-2.92c0-.38.38-.35.67-.35h1q41.79,0,83.59,0c1.43,0,1.79.31,1.79,1.78Q209.24,61.08,209.27,110.16Z" transform="translate(-5.69 -5.23)"/>
</svg>